<svg width="42" height="36" viewBox="0 0 42 36" fill="none" xmlns="http://www.w3.org/2000/svg">
<path fill-rule="evenodd" clip-rule="evenodd" d="M11.9137 0C6.08978 0 1.55856 4.85677 1.50008 10.5606L1.50008 10.5608C1.47897 12.6584 1.77962 14.634 2.34166 16.5H1.5C0.671573 16.5 0 17.1716 0 18C0 18.8284 0.671573 19.5 1.5 19.5H3.50501C6.62869 26.057 12.9589 31.1681 19.3125 35.4805C19.8101 35.8191 20.3981 36.0001 21 36.0001C21.6019 36.0001 22.1899 35.8191 22.6875 35.4805C28.0375 31.8489 33.3712 27.6509 36.7876 22.5H40.5C41.3284 22.5 42 21.8284 42 21C42 20.1716 41.3284 19.5 40.5 19.5H38.4944C39.7885 16.7838 40.5324 13.8195 40.4999 10.561L40.4999 10.5606C40.4414 4.85677 35.9102 0 30.0863 0C26.5115 0 23.882 1.76949 22.2039 3.43555C21.7367 3.89944 21.3357 4.36216 21 4.78882C20.6643 4.36216 20.2633 3.89944 19.7961 3.43555C18.118 1.76949 15.4885 0 11.9137 0ZM35.1114 19.5C36.6521 16.7801 37.5324 13.8347 37.5001 10.5909C37.4571 6.41925 34.1546 3 30.0863 3C27.5748 3 25.6612 4.23051 24.3176 5.56445C23.6491 6.22826 23.1456 6.89585 22.8105 7.39662C22.6439 7.64576 22.5211 7.85016 22.4426 7.9874C22.4034 8.05593 22.3753 8.1074 22.3584 8.13899C22.35 8.15478 22.3444 8.16556 22.3416 8.171L22.3398 8.17451L19.8879 8.50663C19.7986 8.40807 19.7218 8.29676 19.6602 8.17457L19.6584 8.171L19.6493 8.15359L19.6416 8.13899C19.6247 8.1074 19.5966 8.05593 19.5574 7.9874C19.4788 7.85016 19.3561 7.64576 19.1895 7.39662C18.8544 6.89585 18.3509 6.22826 17.6824 5.56445C16.3388 4.23051 14.4252 3 11.9137 3C7.84531 3 4.54284 6.41933 4.49992 10.591L14.7196 9.20671L15.1584 8.32918C15.4334 7.77913 16.0163 7.45268 16.629 7.50556C17.2417 7.55844 17.76 7.97994 17.9367 8.56898L17.995 8.76304L19.8879 8.50663C19.8879 8.50665 19.8879 8.50666 19.8879 8.50667L17.995 8.76311L21.3499 19.9461L24.1584 14.3292C24.4124 13.821 24.9318 13.5 25.5 13.5C26.0682 13.5 26.5876 13.821 26.8416 14.3292L29.427 19.5H35.1114ZM14.7195 9.20684L4.49992 10.5913C4.47896 12.6779 4.83567 14.641 5.50293 16.5H11.0729L14.7195 9.20684ZM6.88801 19.5C9.79969 24.6404 15.0707 28.9758 20.9986 32.9992L21 33.0001L21.0013 32.9992C25.7397 29.7828 30.0586 26.3671 33.0882 22.5H28.5C27.9318 22.5 27.4124 22.179 27.1584 21.6708L25.5 18.3541L22.3416 24.6708C22.0666 25.2209 21.4837 25.5473 20.871 25.4944C20.2583 25.4416 19.74 25.0201 19.5633 24.431L16.1501 13.0539L13.3416 18.6708C13.0876 19.179 12.5682 19.5 12 19.5H6.88801ZM19.8879 8.50667L22.3398 8.17451C22.085 8.68055 21.5668 9 21 9C20.5701 9 20.1682 8.81623 19.8879 8.50667Z" fill="#888888"/>
</svg>
