<svg width="340" height="72" viewBox="0 0 340 72" fill="none" xmlns="http://www.w3.org/2000/svg">
<g opacity="0.6">
<path fill-rule="evenodd" clip-rule="evenodd" d="M34 5.76363C34 4.23489 33.393 2.76911 32.3119 1.68804C31.2308 0.606967 29.7651 0 28.2363 0C21.9734 0 12.0265 0 5.76362 0C4.23489 0 2.76911 0.606967 1.68804 1.68804C0.607595 2.76911 0 4.23489 0 5.76363C0 12.0266 0 21.9734 0 28.2364C0 29.7651 0.607595 31.2309 1.68804 32.312C2.76911 33.393 4.23489 34 5.76362 34C12.0265 34 21.9734 34 28.2363 34C29.7651 34 31.2308 33.393 32.3119 32.312C33.393 31.2309 34 29.7651 34 28.2364V5.76363Z" fill="white"/>
<path fill-rule="evenodd" clip-rule="evenodd" d="M21.0893 11.3156C22.4556 9.94924 22.4555 7.73364 21.0888 6.36704C19.7222 5.00044 17.5066 5.00031 16.1403 6.36663L14.6555 7.8514C13.868 8.63897 13.426 9.70716 13.4259 10.8205C13.4258 11.9346 13.8683 13.0025 14.6556 13.7899L16.6353 15.7695L21.0893 11.3156Z" fill="#EE9591"/>
<path fill-rule="evenodd" clip-rule="evenodd" d="M15.6444 16.7277C15.6444 16.7277 15.0259 16.1091 14.4075 15.4906C14.0794 15.1624 13.6346 14.9782 13.1705 14.9781C12.7067 14.9781 12.2618 15.1623 11.9337 15.4905L11.9336 15.4906C11.2505 16.1737 11.2506 17.2815 11.9335 17.9645L11.934 17.9649C12.6169 18.648 13.7244 18.648 14.4074 17.9649C15.0259 17.3463 15.6444 16.7277 15.6444 16.7277Z" fill="#EE9591"/>
<path fill-rule="evenodd" clip-rule="evenodd" d="M22.0775 22.1666C22.8651 21.379 23.3071 20.3107 23.3074 19.1974C23.3072 18.0836 22.8648 17.0158 22.0775 16.2285L20.098 14.249L11.6865 22.6605C11.0303 23.3168 10.6614 24.2072 10.6615 25.1348C10.6616 26.0633 11.0301 26.953 11.6863 27.6092C13.0528 28.9757 15.2683 28.9758 16.6345 27.6096C18.2512 25.9929 20.3704 23.8736 22.0775 22.1666Z" fill="#EE9591"/>
<path d="M42.086 27.004H39.623C39.623 28.1077 39.9852 28.94 40.7096 29.4828C41.3616 30.0437 42.3757 30.3332 43.7159 30.3332C46.2513 30.3332 48.0985 29.4647 48.0985 27.1125C48.0985 26.4612 47.8812 25.8822 47.4284 25.4117C46.9033 24.9232 45.8348 24.5071 44.2048 24.1814C42.9552 23.9462 42.3395 23.5662 42.3395 23.0777C42.3395 22.5892 42.8104 22.3359 43.7521 22.3359C44.5489 22.3359 45.0379 22.5711 45.2009 22.9872C45.3458 23.3672 45.708 23.5662 46.2694 23.5843H47.7906C47.7363 22.5892 47.356 21.8111 46.6497 21.2502C45.9253 20.7074 44.9474 20.436 43.7159 20.436C41.5245 20.4722 39.8946 21.4493 39.8946 23.5119C39.9127 25.0137 40.9994 25.9546 43.1182 26.3345C44.7663 26.624 45.5993 27.0221 45.5993 27.5106C45.5993 28.1258 45.0922 28.4153 44.0781 28.4153C42.9009 28.4153 42.1403 28.0534 42.086 27.004Z" fill="white"/>
<path d="M49.6828 30.8941V32.8663C49.7552 32.9205 50.0812 32.9386 50.6969 32.9386C52.6891 32.9386 53.2686 32.3958 53.8481 30.8217L57.6331 20.436H55.9489C55.3331 20.436 54.9528 20.7255 54.8079 21.2864L53.1418 27.0763L51.2402 20.436H48.5056L51.7654 29.7904C51.9465 30.4055 51.4757 30.8941 50.3528 30.8941H49.6828Z" fill="white"/>
<path d="M61.6257 28.3791C60.865 28.3791 60.4666 28.0172 60.4123 27.2573C60.4123 26.5516 60.9013 26.0993 61.8611 25.9184C62.5674 25.7736 63.2193 25.5746 63.7808 25.3394V26.226C63.7808 27.583 62.9658 28.3791 61.6257 28.3791ZM62.1871 22.4082C63.1831 22.4082 63.6902 22.6796 63.7445 23.2224C63.7445 23.7471 63.2193 24.0547 62.1871 24.1814C59.7603 24.4166 58.0942 25.0318 58.0399 27.3297C58.0399 29.4466 59.6335 30.5141 61.9335 30.3332C64.5233 30.1522 66.117 28.9762 66.117 26.3345V23.0777C66.0626 21.3045 64.7225 20.436 62.0784 20.436C59.869 20.436 58.6194 21.3045 58.3296 23.0777H60.7383C60.865 22.6253 61.3359 22.4082 62.1871 22.4082Z" fill="white"/>
<path d="M69.7417 17.1307C69.7417 16.3346 69.3432 15.9185 68.5464 15.9185H67.333V25.9784C67.333 28.8553 68.8361 30.2847 71.8243 30.2666C74.7944 30.2123 76.2794 28.602 76.2794 25.4175C76.2794 22.1607 75.0117 20.4961 72.4582 20.4056C71.2629 20.4056 70.3574 20.8942 69.7417 21.8893V17.1307ZM71.7881 22.5588C73.092 22.5588 73.7621 23.4634 73.8164 25.309C73.8164 27.245 73.1282 28.222 71.7519 28.222C70.3755 28.222 69.7235 27.245 69.7417 25.309C69.8141 23.4634 70.4842 22.5588 71.7881 22.5588Z" fill="white"/>
<path d="M81.0787 28.3791C80.3181 28.3791 79.9197 28.0172 79.8653 27.2573C79.8653 26.5516 80.3543 26.0993 81.3142 25.9184C82.0204 25.7736 82.6724 25.5746 83.2338 25.3394V26.226C83.2338 27.583 82.4189 28.3791 81.0787 28.3791ZM81.6401 22.4082C82.6362 22.4082 83.1433 22.6796 83.1976 23.2224C83.1976 23.7471 82.6724 24.0547 81.6401 24.1814C79.2134 24.4166 77.5473 25.0318 77.4929 27.3297C77.4929 29.4466 79.0866 30.5141 81.3866 30.3332C83.9763 30.1522 85.57 28.9762 85.57 26.3345V23.0777C85.5157 21.3045 84.1755 20.436 81.5315 20.436C79.322 20.436 78.0724 21.3045 77.7827 23.0777H80.1913C80.3181 22.6253 80.789 22.4082 81.6401 22.4082Z" fill="white"/>
<path d="M94.9515 30.3513V24.5252C94.9696 21.793 93.6294 20.436 90.8948 20.436C88.1602 20.436 86.7838 21.793 86.7838 24.5252V30.3513H89.2287V24.0366C89.2468 23.0415 89.7901 22.553 90.8586 22.553C91.9271 22.553 92.4704 23.0415 92.5247 24.0366V29.1571C92.5247 29.917 92.9231 30.297 93.72 30.3513H94.9515Z" fill="white"/>
<path d="M105.459 30.2954C106.378 30.2954 107.123 29.5511 107.123 28.633C107.123 27.715 106.378 26.9707 105.459 26.9707C104.54 26.9707 103.795 27.715 103.795 28.633C103.795 29.5511 104.54 30.2954 105.459 30.2954Z" fill="white"/>
<path d="M96.5351 30.8941V32.8663C96.6075 32.9205 96.9335 32.9386 97.5492 32.9386C99.5413 32.9386 100.121 32.3958 100.7 30.8217L104.485 20.436H102.801C102.185 20.436 101.805 20.7255 101.66 21.2864L99.9941 27.0763L98.0925 20.436H95.3579L98.6177 29.7904C98.7988 30.4055 98.328 30.8941 97.2051 30.8941H96.5351Z" fill="white"/>
<path d="M116.823 27.2504H115.024C114.719 27.2504 114.449 27.3583 114.215 27.5922C113.819 28.0419 113.333 28.2758 112.776 28.2758C111.445 28.2938 110.779 27.3403 110.779 25.4515C110.779 23.5626 111.409 22.6091 112.668 22.6091C113.423 22.6091 113.927 22.9509 114.215 23.5986H116.823C116.41 21.5298 115.042 20.5044 112.74 20.5044C109.807 20.5584 108.35 22.1954 108.35 25.4515C108.422 28.7255 109.897 30.3805 112.776 30.3805C114.988 30.4345 116.392 29.1932 116.823 27.2504Z" fill="white"/>
<path d="M122.684 20.5034C119.806 20.5034 118.367 22.1404 118.367 25.4505C118.367 28.7245 119.806 30.3796 122.684 30.3796C125.562 30.3796 127.02 28.7245 127.02 25.4505C127.02 22.1404 125.562 20.5034 122.684 20.5034ZM122.684 22.6082C123.907 22.6082 124.519 23.5256 124.519 25.3785C124.501 27.2674 123.889 28.2388 122.666 28.2388C121.443 28.2388 120.813 27.3034 120.795 25.4505C120.795 23.5616 121.425 22.6082 122.684 22.6082Z" fill="white"/>
<path d="M132.583 22.6082C133.644 22.6082 134.184 23.0939 134.238 24.0833V30.1637H136.649V24.1193C136.667 23.1299 137.206 22.6441 138.268 22.6441C139.329 22.6441 139.869 23.1299 139.923 24.1193V29.0124C139.923 29.7679 140.318 30.1457 141.11 30.1997H142.351V24.605C142.369 21.8886 141.02 20.5394 138.304 20.5394C137.08 20.5394 136.145 20.7912 135.461 21.3129C134.778 20.7733 133.842 20.5034 132.619 20.5034C129.903 20.5034 128.535 21.8526 128.535 24.569V30.1637H130.964V24.0833C130.982 23.0939 131.522 22.6082 132.583 22.6082Z" fill="white"/>
<path d="M39.7054 8.94982C39.7768 10.4837 41.049 11.4349 42.999 11.4349C45.0085 11.4349 46.2688 10.4242 46.2688 8.81903C46.2688 7.57056 45.5316 6.86904 43.7719 6.50044L42.8563 6.32209C41.81 6.09617 41.3938 5.72758 41.3938 5.15685C41.3938 4.45533 42.0597 4.01539 42.9871 4.01539C43.9502 4.01539 44.6042 4.491 44.6755 5.28764H46.1142C46.0786 3.78948 44.8539 2.77881 42.999 2.77881C41.1798 2.77881 39.8838 3.77759 39.8838 5.25197C39.8838 6.47666 40.6685 7.26141 42.3451 7.60623L43.2487 7.79647C44.3426 8.02239 44.7588 8.39098 44.7588 8.99738C44.7588 9.68701 44.0572 10.1864 43.0466 10.1864C42.0002 10.1864 41.2512 9.72269 41.1323 8.94982H39.7054Z" fill="white"/>
<path d="M52.8213 5.14111H51.3707V8.70817C51.3707 9.59994 50.8594 10.1944 50.0152 10.1944C49.2067 10.1944 48.7786 9.71884 48.7786 8.82707V5.14111H47.328V9.12433C47.328 10.5512 48.1841 11.4072 49.5158 11.4072C50.4551 11.4072 51.0734 10.9792 51.3944 10.2301H51.4301V11.3002H52.8213V5.14111Z" fill="white"/>
<path d="M57.4953 5.00342C56.6036 5.00342 55.9021 5.45525 55.5572 6.16866H55.5216V5.09854H54.1185V13.279H55.5572V10.2351H55.5929C55.9258 10.9247 56.6274 11.3528 57.5191 11.3528C59.0648 11.3528 60.0517 10.14 60.0517 8.1781C60.0517 6.21622 59.053 5.00342 57.4953 5.00342ZM57.0554 10.1757C56.1518 10.1757 55.5572 9.3909 55.5454 8.1781C55.5572 6.98908 56.1518 6.19244 57.0554 6.19244C57.9828 6.19244 58.5655 6.9653 58.5655 8.1781C58.5655 9.40279 57.9828 10.1757 57.0554 10.1757Z" fill="white"/>
<path d="M64.4773 5.00342C63.5855 5.00342 62.884 5.45525 62.5392 6.16866H62.5035V5.09854H61.1005V13.279H62.5392V10.2351H62.5748C62.9078 10.9247 63.6093 11.3528 64.5011 11.3528C66.0468 11.3528 67.0337 10.14 67.0337 8.1781C67.0337 6.21622 66.0349 5.00342 64.4773 5.00342ZM64.0373 10.1757C63.1337 10.1757 62.5392 9.3909 62.5273 8.1781C62.5392 6.98908 63.1337 6.19244 64.0373 6.19244C64.9648 6.19244 65.5474 6.9653 65.5474 8.1781C65.5474 9.40279 64.9648 10.1757 64.0373 10.1757Z" fill="white"/>
<path d="M70.8038 11.3994C72.6111 11.3994 73.7763 10.1985 73.7763 8.2009C73.7763 6.21524 72.5992 5.00244 70.8038 5.00244C69.0084 5.00244 67.8193 6.21524 67.8193 8.2009C67.8193 10.1985 68.9965 11.3994 70.8038 11.3994ZM70.8038 10.2579C69.8882 10.2579 69.2937 9.52071 69.2937 8.2009C69.2937 6.89298 69.8882 6.1439 70.8038 6.1439C71.7193 6.1439 72.3138 6.89298 72.3138 8.2009C72.3138 9.52071 71.7193 10.2579 70.8038 10.2579Z" fill="white"/>
<path d="M74.8316 11.2577H76.2703V7.67871C76.2703 6.81073 76.7697 6.28756 77.5901 6.28756C77.8279 6.28756 78.0538 6.31134 78.1727 6.3589V5.06287C78.0657 5.03909 77.9112 5.00342 77.7209 5.00342C76.9956 5.00342 76.4606 5.43147 76.2465 6.18055H76.2228V5.09854H74.8316V11.2577Z" fill="white"/>
<path d="M79.4283 3.68115V5.11987H78.5485V6.23755H79.4283V9.63814C79.4283 10.8391 79.9515 11.3028 81.2832 11.3028C81.5924 11.3028 81.8777 11.279 82.0323 11.2552V10.1494C81.9372 10.1613 81.7588 10.1732 81.628 10.1732C81.1167 10.1732 80.8789 9.94729 80.8789 9.43601V6.23755H82.0442V5.11987H80.8789V3.68115H79.4283Z" fill="white"/>
<path d="M89.0805 11.3947C90.6381 11.3947 91.625 10.1938 91.625 8.22002C91.625 6.25814 90.6381 5.04534 89.0805 5.04534C88.2125 5.04534 87.511 5.48527 87.1662 6.19869H87.1305V2.91699H85.6799V11.2996H87.0949V10.2532H87.1305C87.4872 10.9667 88.1769 11.3947 89.0805 11.3947ZM88.6406 6.23436C89.5561 6.23436 90.1387 7.00722 90.1387 8.22002C90.1387 9.44471 89.568 10.2176 88.6406 10.2176C87.7488 10.2176 87.1186 9.43282 87.1186 8.22002C87.1186 7.031 87.7488 6.23436 88.6406 6.23436Z" fill="white"/>
<path d="M93.2101 13.5832C94.6131 13.5832 95.2909 13.0719 95.814 11.5499L98.0494 5.14111H96.5274L95.0768 10.0637H95.0412L93.6025 5.14111H92.0211L94.2089 11.3002C94.2089 11.324 94.1256 11.6332 94.1256 11.6451C93.9592 12.2158 93.6619 12.4417 93.0555 12.4417C92.9723 12.4417 92.7107 12.4417 92.6393 12.4179V13.5594C92.7107 13.5832 93.1268 13.5832 93.2101 13.5832Z" fill="white"/>
</g>
<path d="M6.59668 60.9189H7.64258C7.64258 61.6344 7.4375 62.1722 7.02734 62.5322C6.61719 62.8877 6.0612 63.0654 5.35938 63.0654C4.87174 63.0654 4.4502 62.9538 4.09473 62.7305C3.73926 62.5072 3.46354 62.1973 3.26758 61.8008C3.07617 61.4043 2.98047 60.944 2.98047 60.4199V59.6201C2.98047 59.096 3.07617 58.6357 3.26758 58.2393C3.46354 57.8428 3.73926 57.5329 4.09473 57.3096C4.4502 57.0863 4.87174 56.9746 5.35938 56.9746C6.0612 56.9746 6.61719 57.1523 7.02734 57.5078C7.44206 57.8633 7.64941 58.3988 7.64941 59.1143H6.60352C6.60352 58.6722 6.4987 58.3555 6.28906 58.1641C6.07943 57.9727 5.76953 57.877 5.35938 57.877C5.06315 57.877 4.81478 57.9521 4.61426 58.1025C4.41829 58.2484 4.2679 58.4512 4.16309 58.7109C4.06283 58.9707 4.0127 59.2715 4.0127 59.6133V60.4199C4.0127 60.7617 4.06283 61.0648 4.16309 61.3291C4.2679 61.5889 4.41829 61.7939 4.61426 61.9443C4.81478 62.0902 5.06315 62.1631 5.35938 62.1631C5.76953 62.1631 6.07715 62.0674 6.28223 61.876C6.49186 61.6846 6.59668 61.3656 6.59668 60.9189ZM1.42188 60.0166C1.42188 60.6182 1.52441 61.1787 1.72949 61.6982C1.93913 62.2178 2.22852 62.6735 2.59766 63.0654C2.97135 63.4528 3.40202 63.7559 3.88965 63.9746C4.37728 64.1888 4.89909 64.2959 5.45508 64.2959C6.01107 64.2959 6.5306 64.1888 7.01367 63.9746C7.5013 63.7559 7.92969 63.4528 8.29883 63.0654C8.67253 62.6735 8.96191 62.2178 9.16699 61.6982C9.37663 61.1787 9.48145 60.6182 9.48145 60.0166C9.48145 59.4105 9.37663 58.8499 9.16699 58.335C8.96191 57.8154 8.67253 57.362 8.29883 56.9746C7.92969 56.5872 7.5013 56.2865 7.01367 56.0723C6.5306 55.8581 6.01107 55.751 5.45508 55.751C4.89909 55.751 4.37728 55.8581 3.88965 56.0723C3.40202 56.2865 2.97135 56.5872 2.59766 56.9746C2.22852 57.362 1.93913 57.8154 1.72949 58.335C1.52441 58.8499 1.42188 59.4105 1.42188 60.0166ZM0.601562 60.0166C0.601562 59.292 0.726888 58.6198 0.977539 58C1.22819 57.3802 1.57682 56.8402 2.02344 56.3799C2.47005 55.915 2.98503 55.555 3.56836 55.2998C4.15625 55.04 4.78516 54.9102 5.45508 54.9102C6.125 54.9102 6.75163 55.04 7.33496 55.2998C7.92285 55.555 8.43783 55.915 8.87988 56.3799C9.3265 56.8402 9.67513 57.3802 9.92578 58C10.181 58.6198 10.3086 59.292 10.3086 60.0166C10.3086 60.7412 10.181 61.4134 9.92578 62.0332C9.67513 62.653 9.3265 63.1953 8.87988 63.6602C8.43783 64.125 7.92285 64.4873 7.33496 64.7471C6.75163 65.0068 6.125 65.1367 5.45508 65.1367C4.78516 65.1367 4.15625 65.0068 3.56836 64.7471C2.98503 64.4873 2.47005 64.125 2.02344 63.6602C1.57682 63.1953 1.22819 62.653 0.977539 62.0332C0.726888 61.4134 0.601562 60.7412 0.601562 60.0166ZM21.3844 63.4619V65H14.5758V63.6875L17.7955 60.2354C18.1191 59.8753 18.3743 59.5586 18.5611 59.2852C18.748 59.0072 18.8824 58.7588 18.9645 58.54C19.051 58.3167 19.0943 58.1048 19.0943 57.9043C19.0943 57.6035 19.0442 57.346 18.9439 57.1318C18.8437 56.9131 18.6956 56.7445 18.4996 56.626C18.3082 56.5075 18.0712 56.4482 17.7887 56.4482C17.4879 56.4482 17.2281 56.5212 17.0094 56.667C16.7952 56.8128 16.6311 57.0156 16.5172 57.2754C16.4078 57.5352 16.3531 57.8291 16.3531 58.1572H14.3775C14.3775 57.5648 14.5188 57.0225 14.8014 56.5303C15.0839 56.0335 15.4827 55.6393 15.9977 55.3477C16.5126 55.0514 17.1233 54.9033 17.8297 54.9033C18.527 54.9033 19.1148 55.0173 19.5934 55.2451C20.0764 55.4684 20.441 55.792 20.6871 56.2158C20.9378 56.6351 21.0631 57.1364 21.0631 57.7197C21.0631 58.0479 21.0107 58.3691 20.9059 58.6836C20.801 58.9935 20.6507 59.3034 20.4547 59.6133C20.2633 59.9186 20.0309 60.2285 19.7574 60.543C19.484 60.8574 19.1809 61.1833 18.8482 61.5205L17.1187 63.4619H21.3844ZM29.0141 59.1484V60.8711C29.0141 61.6185 28.9343 62.2633 28.7748 62.8057C28.6153 63.3434 28.3852 63.7855 28.0844 64.1318C27.7882 64.4736 27.435 64.7266 27.0248 64.8906C26.6146 65.0547 26.1589 65.1367 25.6576 65.1367C25.2566 65.1367 24.8829 65.0866 24.5365 64.9863C24.1902 64.8815 23.878 64.7197 23.6 64.501C23.3266 64.2822 23.0896 64.0065 22.8891 63.6738C22.6931 63.3366 22.5427 62.9355 22.4379 62.4707C22.3331 62.0059 22.2807 61.4727 22.2807 60.8711V59.1484C22.2807 58.401 22.3604 57.7607 22.5199 57.2275C22.684 56.6898 22.9141 56.25 23.2104 55.9082C23.5111 55.5664 23.8666 55.3158 24.2768 55.1562C24.6869 54.9922 25.1426 54.9102 25.6439 54.9102C26.045 54.9102 26.4164 54.9626 26.7582 55.0674C27.1046 55.1676 27.4167 55.3249 27.6947 55.5391C27.9727 55.7533 28.2097 56.029 28.4057 56.3662C28.6016 56.6989 28.752 57.0977 28.8568 57.5625C28.9617 58.0228 29.0141 58.5514 29.0141 59.1484ZM27.0385 61.1309V58.8818C27.0385 58.5218 27.018 58.2074 26.977 57.9385C26.9405 57.6696 26.8835 57.4417 26.8061 57.2549C26.7286 57.0635 26.6329 56.9085 26.5189 56.79C26.405 56.6715 26.2751 56.585 26.1293 56.5303C25.9835 56.4756 25.8217 56.4482 25.6439 56.4482C25.4206 56.4482 25.2224 56.4915 25.0492 56.5781C24.8806 56.6647 24.737 56.8037 24.6186 56.9951C24.5001 57.182 24.4089 57.4326 24.3451 57.7471C24.2859 58.057 24.2563 58.4352 24.2563 58.8818V61.1309C24.2563 61.4909 24.2745 61.8076 24.3109 62.0811C24.352 62.3545 24.4112 62.5892 24.4887 62.7852C24.5707 62.9766 24.6664 63.1338 24.7758 63.2568C24.8897 63.3753 25.0196 63.4619 25.1654 63.5166C25.3158 63.5713 25.4799 63.5986 25.6576 63.5986C25.8764 63.5986 26.0701 63.5553 26.2387 63.4688C26.4118 63.3776 26.5577 63.2363 26.6762 63.0449C26.7992 62.849 26.8904 62.5938 26.9496 62.2793C27.0089 61.9648 27.0385 61.582 27.0385 61.1309ZM36.8625 63.4619V65H30.0539V63.6875L33.2736 60.2354C33.5972 59.8753 33.8524 59.5586 34.0393 59.2852C34.2261 59.0072 34.3605 58.7588 34.4426 58.54C34.5292 58.3167 34.5725 58.1048 34.5725 57.9043C34.5725 57.6035 34.5223 57.346 34.4221 57.1318C34.3218 56.9131 34.1737 56.7445 33.9777 56.626C33.7863 56.5075 33.5493 56.4482 33.2668 56.4482C32.966 56.4482 32.7062 56.5212 32.4875 56.667C32.2733 56.8128 32.1092 57.0156 31.9953 57.2754C31.8859 57.5352 31.8312 57.8291 31.8312 58.1572H29.8557C29.8557 57.5648 29.9969 57.0225 30.2795 56.5303C30.562 56.0335 30.9608 55.6393 31.4758 55.3477C31.9908 55.0514 32.6014 54.9033 33.3078 54.9033C34.0051 54.9033 34.593 55.0173 35.0715 55.2451C35.5546 55.4684 35.9191 55.792 36.1652 56.2158C36.4159 56.6351 36.5412 57.1364 36.5412 57.7197C36.5412 58.0479 36.4888 58.3691 36.384 58.6836C36.2792 58.9935 36.1288 59.3034 35.9328 59.6133C35.7414 59.9186 35.509 60.2285 35.2355 60.543C34.9621 60.8574 34.659 61.1833 34.3264 61.5205L32.5969 63.4619H36.8625ZM44.6016 63.4619V65H37.793V63.6875L41.0127 60.2354C41.3363 59.8753 41.5915 59.5586 41.7783 59.2852C41.9652 59.0072 42.0996 58.7588 42.1816 58.54C42.2682 58.3167 42.3115 58.1048 42.3115 57.9043C42.3115 57.6035 42.2614 57.346 42.1611 57.1318C42.0609 56.9131 41.9128 56.7445 41.7168 56.626C41.5254 56.5075 41.2884 56.4482 41.0059 56.4482C40.7051 56.4482 40.4453 56.5212 40.2266 56.667C40.0124 56.8128 39.8483 57.0156 39.7344 57.2754C39.625 57.5352 39.5703 57.8291 39.5703 58.1572H37.5947C37.5947 57.5648 37.736 57.0225 38.0186 56.5303C38.3011 56.0335 38.6999 55.6393 39.2148 55.3477C39.7298 55.0514 40.3405 54.9033 41.0469 54.9033C41.7441 54.9033 42.332 55.0173 42.8105 55.2451C43.2936 55.4684 43.6582 55.792 43.9043 56.2158C44.1549 56.6351 44.2803 57.1364 44.2803 57.7197C44.2803 58.0479 44.2279 58.3691 44.123 58.6836C44.0182 58.9935 43.8678 59.3034 43.6719 59.6133C43.4805 59.9186 43.248 60.2285 42.9746 60.543C42.7012 60.8574 42.3981 61.1833 42.0654 61.5205L40.3359 63.4619H44.6016ZM52.8199 60.6318H50.2633L50.2496 59.2236H52.3961C52.7744 59.2236 53.0842 59.1758 53.3258 59.0801C53.5673 58.9798 53.7473 58.8363 53.8658 58.6494C53.9889 58.458 54.0504 58.2256 54.0504 57.9521C54.0504 57.6423 53.9911 57.3916 53.8727 57.2002C53.7587 57.0088 53.5787 56.8698 53.3326 56.7832C53.0911 56.6966 52.7789 56.6533 52.3961 56.6533H50.9742V65H48.9234V55.0469H52.3961C52.9749 55.0469 53.4921 55.1016 53.9479 55.2109C54.4081 55.3203 54.7978 55.4867 55.1168 55.71C55.4358 55.9333 55.6796 56.2158 55.8482 56.5576C56.0169 56.8949 56.1012 57.2959 56.1012 57.7607C56.1012 58.1709 56.0077 58.5492 55.8209 58.8955C55.6386 59.2419 55.3492 59.5244 54.9527 59.7432C54.5608 59.9619 54.0481 60.0827 53.4146 60.1055L52.8199 60.6318ZM52.7311 65H49.7027L50.5025 63.4004H52.7311C53.0911 63.4004 53.385 63.3434 53.6129 63.2295C53.8408 63.111 54.0094 62.9515 54.1188 62.751C54.2281 62.5505 54.2828 62.3203 54.2828 62.0605C54.2828 61.7689 54.2327 61.516 54.1324 61.3018C54.0367 61.0876 53.8818 60.9235 53.6676 60.8096C53.4534 60.6911 53.1708 60.6318 52.8199 60.6318H50.8443L50.858 59.2236H53.3189L53.7906 59.7773C54.3967 59.7682 54.8844 59.8753 55.2535 60.0986C55.6272 60.3174 55.8984 60.6022 56.067 60.9531C56.2402 61.304 56.3268 61.68 56.3268 62.0811C56.3268 62.7191 56.1878 63.2568 55.9098 63.6943C55.6318 64.1273 55.2239 64.4531 54.6861 64.6719C54.1529 64.8906 53.5012 65 52.7311 65ZM60.8461 65.1367C60.2719 65.1367 59.7569 65.0456 59.3012 64.8633C58.8454 64.6764 58.4581 64.4189 58.1391 64.0908C57.8246 63.7627 57.5831 63.3822 57.4145 62.9492C57.2458 62.5117 57.1615 62.0469 57.1615 61.5547V61.2812C57.1615 60.7207 57.2413 60.208 57.4008 59.7432C57.5603 59.2783 57.7881 58.875 58.0844 58.5332C58.3852 58.1914 58.7497 57.9294 59.1781 57.7471C59.6065 57.5602 60.0896 57.4668 60.6273 57.4668C61.1514 57.4668 61.6163 57.5534 62.0219 57.7266C62.4275 57.8997 62.767 58.1458 63.0404 58.4648C63.3184 58.7839 63.5281 59.1667 63.6693 59.6133C63.8106 60.0553 63.8812 60.5475 63.8812 61.0898V61.9102H58.0023V60.5977H61.9467V60.4473C61.9467 60.1738 61.8965 59.93 61.7963 59.7158C61.7006 59.4971 61.5548 59.3239 61.3588 59.1963C61.1628 59.0687 60.9122 59.0049 60.6068 59.0049C60.3471 59.0049 60.1238 59.0618 59.9369 59.1758C59.7501 59.2897 59.5974 59.4492 59.4789 59.6543C59.365 59.8594 59.2784 60.1009 59.2191 60.3789C59.1645 60.6523 59.1371 60.9531 59.1371 61.2812V61.5547C59.1371 61.8509 59.1781 62.1243 59.2602 62.375C59.3467 62.6257 59.4675 62.8421 59.6225 63.0244C59.782 63.2067 59.9734 63.348 60.1967 63.4482C60.4245 63.5485 60.682 63.5986 60.9691 63.5986C61.3246 63.5986 61.655 63.5303 61.9604 63.3936C62.2702 63.2523 62.5368 63.0404 62.7602 62.7578L63.7172 63.7969C63.5622 64.0202 63.3503 64.2344 63.0814 64.4395C62.8171 64.6445 62.4981 64.8132 62.1244 64.9453C61.7507 65.0729 61.3246 65.1367 60.8461 65.1367ZM68.6945 63.332V60.0371C68.6945 59.8001 68.6558 59.5973 68.5783 59.4287C68.5008 59.2555 68.3801 59.1211 68.216 59.0254C68.0565 58.9297 67.8492 58.8818 67.5939 58.8818C67.3752 58.8818 67.1861 58.9206 67.0266 58.998C66.8671 59.071 66.744 59.1781 66.6574 59.3193C66.5708 59.4561 66.5275 59.6178 66.5275 59.8047H64.5588C64.5588 59.4902 64.6317 59.1917 64.7775 58.9092C64.9234 58.6266 65.1353 58.3783 65.4133 58.1641C65.6913 57.9453 66.0217 57.7744 66.4045 57.6514C66.7919 57.5283 67.2248 57.4668 67.7033 57.4668C68.2775 57.4668 68.788 57.5625 69.2346 57.7539C69.6812 57.9453 70.0321 58.2324 70.2873 58.6152C70.5471 58.998 70.677 59.4766 70.677 60.0508V63.2158C70.677 63.6214 70.702 63.9541 70.7521 64.2139C70.8023 64.4691 70.8752 64.6924 70.9709 64.8838V65H68.9816C68.8859 64.7995 68.813 64.5488 68.7629 64.248C68.7173 63.9427 68.6945 63.6374 68.6945 63.332ZM68.9543 60.4951L68.968 61.6094H67.8674C67.6076 61.6094 67.382 61.639 67.1906 61.6982C66.9992 61.7575 66.842 61.8418 66.7189 61.9512C66.5959 62.056 66.5048 62.179 66.4455 62.3203C66.3908 62.4616 66.3635 62.6165 66.3635 62.7852C66.3635 62.9538 66.4022 63.1064 66.4797 63.2432C66.5572 63.3753 66.6688 63.4801 66.8146 63.5576C66.9605 63.6305 67.1314 63.667 67.3273 63.667C67.6236 63.667 67.8811 63.6077 68.0998 63.4893C68.3186 63.3708 68.4872 63.2249 68.6057 63.0518C68.7287 62.8786 68.7925 62.7145 68.7971 62.5596L69.3166 63.3936C69.2437 63.5804 69.1434 63.7741 69.0158 63.9746C68.8928 64.1751 68.7355 64.3643 68.5441 64.542C68.3527 64.7152 68.1226 64.8587 67.8537 64.9727C67.5848 65.082 67.2658 65.1367 66.8967 65.1367C66.4273 65.1367 66.0012 65.0433 65.6184 64.8564C65.2401 64.665 64.9393 64.403 64.716 64.0703C64.4973 63.7331 64.3879 63.3503 64.3879 62.9219C64.3879 62.5345 64.4608 62.1904 64.6066 61.8896C64.7525 61.5889 64.9667 61.3359 65.2492 61.1309C65.5363 60.9212 65.8941 60.764 66.3225 60.6592C66.7508 60.5498 67.2476 60.4951 67.8127 60.4951H68.9543ZM76.2695 63.2295V57.6035H78.2383V65H76.3857L76.2695 63.2295ZM76.4883 61.7119L77.0693 61.6982C77.0693 62.1904 77.0124 62.6484 76.8984 63.0723C76.7845 63.4915 76.6136 63.8561 76.3857 64.166C76.1579 64.4714 75.8708 64.7106 75.5244 64.8838C75.1781 65.0524 74.7702 65.1367 74.3008 65.1367C73.9408 65.1367 73.6081 65.0866 73.3027 64.9863C73.002 64.8815 72.7422 64.7197 72.5234 64.501C72.3092 64.2777 72.1406 63.9928 72.0176 63.6465C71.8991 63.2956 71.8398 62.874 71.8398 62.3818V57.6035H73.8086V62.3955C73.8086 62.6143 73.8337 62.7988 73.8838 62.9492C73.9385 63.0996 74.0137 63.2227 74.1094 63.3184C74.2051 63.4141 74.3167 63.4824 74.4443 63.5234C74.5765 63.5645 74.7223 63.585 74.8818 63.585C75.2874 63.585 75.6064 63.5029 75.8389 63.3389C76.0758 63.1748 76.2422 62.9515 76.3379 62.6689C76.4382 62.3818 76.4883 62.0628 76.4883 61.7119ZM83.0652 57.6035V58.998H78.7586V57.6035H83.0652ZM79.825 55.7783H81.7937V62.7715C81.7937 62.9857 81.8211 63.1497 81.8758 63.2637C81.935 63.3776 82.0216 63.4574 82.1355 63.5029C82.2495 63.5439 82.393 63.5645 82.5662 63.5645C82.6893 63.5645 82.7986 63.5599 82.8943 63.5508C82.9946 63.5371 83.0789 63.5234 83.1473 63.5098L83.1541 64.959C82.9855 65.0137 82.8032 65.057 82.6072 65.0889C82.4113 65.1208 82.1948 65.1367 81.9578 65.1367C81.5249 65.1367 81.1466 65.0661 80.823 64.9248C80.504 64.779 80.2579 64.5465 80.0848 64.2275C79.9116 63.9085 79.825 63.4893 79.825 62.9697V55.7783ZM85.9645 57.6035V65H83.9889V57.6035H85.9645ZM83.8658 55.6758C83.8658 55.3887 83.9661 55.1517 84.1666 54.9648C84.3671 54.778 84.636 54.6846 84.9732 54.6846C85.3059 54.6846 85.5725 54.778 85.773 54.9648C85.9781 55.1517 86.0807 55.3887 86.0807 55.6758C86.0807 55.9629 85.9781 56.1999 85.773 56.3867C85.5725 56.5736 85.3059 56.667 84.9732 56.667C84.636 56.667 84.3671 56.5736 84.1666 56.3867C83.9661 56.1999 83.8658 55.9629 83.8658 55.6758ZM90.6957 65.1367C90.1215 65.1367 89.6065 65.0456 89.1508 64.8633C88.6951 64.6764 88.3077 64.4189 87.9887 64.0908C87.6742 63.7627 87.4327 63.3822 87.2641 62.9492C87.0954 62.5117 87.0111 62.0469 87.0111 61.5547V61.2812C87.0111 60.7207 87.0909 60.208 87.2504 59.7432C87.4099 59.2783 87.6378 58.875 87.934 58.5332C88.2348 58.1914 88.5993 57.9294 89.0277 57.7471C89.4561 57.5602 89.9392 57.4668 90.477 57.4668C91.001 57.4668 91.4659 57.5534 91.8715 57.7266C92.2771 57.8997 92.6166 58.1458 92.89 58.4648C93.168 58.7839 93.3777 59.1667 93.5189 59.6133C93.6602 60.0553 93.7309 60.5475 93.7309 61.0898V61.9102H87.852V60.5977H91.7963V60.4473C91.7963 60.1738 91.7462 59.93 91.6459 59.7158C91.5502 59.4971 91.4044 59.3239 91.2084 59.1963C91.0124 59.0687 90.7618 59.0049 90.4564 59.0049C90.1967 59.0049 89.9734 59.0618 89.7865 59.1758C89.5997 59.2897 89.447 59.4492 89.3285 59.6543C89.2146 59.8594 89.128 60.1009 89.0687 60.3789C89.0141 60.6523 88.9867 60.9531 88.9867 61.2812V61.5547C88.9867 61.8509 89.0277 62.1243 89.1098 62.375C89.1964 62.6257 89.3171 62.8421 89.4721 63.0244C89.6316 63.2067 89.823 63.348 90.0463 63.4482C90.2742 63.5485 90.5316 63.5986 90.8187 63.5986C91.1742 63.5986 91.5046 63.5303 91.81 63.3936C92.1199 63.2523 92.3865 63.0404 92.6098 62.7578L93.5668 63.7969C93.4118 64.0202 93.1999 64.2344 92.9311 64.4395C92.6667 64.6445 92.3477 64.8132 91.974 64.9453C91.6003 65.0729 91.1742 65.1367 90.6957 65.1367ZM98.551 62.9561C98.551 62.8148 98.51 62.6872 98.4279 62.5732C98.3459 62.4593 98.1932 62.3545 97.9699 62.2588C97.7512 62.1585 97.4344 62.0674 97.0197 61.9854C96.646 61.9033 96.2974 61.8008 95.9738 61.6777C95.6548 61.5501 95.3768 61.3975 95.1398 61.2197C94.9074 61.042 94.7251 60.8324 94.593 60.5908C94.4608 60.3447 94.3947 60.0645 94.3947 59.75C94.3947 59.4401 94.4608 59.1484 94.593 58.875C94.7297 58.6016 94.9234 58.36 95.174 58.1504C95.4292 57.9362 95.7391 57.7699 96.1037 57.6514C96.4729 57.5283 96.8876 57.4668 97.3479 57.4668C97.9904 57.4668 98.5419 57.5693 99.0022 57.7744C99.467 57.9795 99.8225 58.262 100.069 58.6221C100.319 58.9775 100.445 59.3831 100.445 59.8389H98.4758C98.4758 59.6475 98.4348 59.4766 98.3527 59.3262C98.2753 59.1712 98.1522 59.0505 97.9836 58.9639C97.8195 58.8727 97.6053 58.8271 97.341 58.8271C97.1223 58.8271 96.9331 58.8659 96.7736 58.9434C96.6141 59.0163 96.4911 59.1165 96.4045 59.2441C96.3225 59.3672 96.2814 59.5039 96.2814 59.6543C96.2814 59.7682 96.3042 59.8708 96.3498 59.9619C96.3999 60.0485 96.4797 60.1283 96.5891 60.2012C96.6984 60.2741 96.8397 60.3424 97.0129 60.4062C97.1906 60.4655 97.4094 60.5202 97.6691 60.5703C98.2023 60.6797 98.6786 60.8232 99.0979 61.001C99.5171 61.1742 99.8498 61.4111 100.096 61.7119C100.342 62.0081 100.465 62.3978 100.465 62.8809C100.465 63.209 100.392 63.5098 100.246 63.7832C100.1 64.0566 99.8908 64.2959 99.6174 64.501C99.3439 64.7015 99.0158 64.8587 98.633 64.9727C98.2548 65.082 97.8286 65.1367 97.3547 65.1367C96.6665 65.1367 96.0832 65.0137 95.6047 64.7676C95.1307 64.5215 94.7707 64.2093 94.5246 63.8311C94.2831 63.4482 94.1623 63.0563 94.1623 62.6553H96.0285C96.0376 62.9242 96.106 63.1406 96.2336 63.3047C96.3658 63.4688 96.5321 63.5872 96.7326 63.6602C96.9377 63.7331 97.1587 63.7695 97.3957 63.7695C97.6509 63.7695 97.8628 63.7354 98.0314 63.667C98.2001 63.5941 98.3277 63.4984 98.4143 63.3799C98.5054 63.2568 98.551 63.1156 98.551 62.9561ZM103.521 54.5V65H101.546V54.5H103.521ZM106.927 57.6035V65H104.951V57.6035H106.927ZM104.828 55.6758C104.828 55.3887 104.928 55.1517 105.129 54.9648C105.329 54.778 105.598 54.6846 105.935 54.6846C106.268 54.6846 106.535 54.778 106.735 54.9648C106.94 55.1517 107.043 55.3887 107.043 55.6758C107.043 55.9629 106.94 56.1999 106.735 56.3867C106.535 56.5736 106.268 56.667 105.935 56.667C105.598 56.667 105.329 56.5736 105.129 56.3867C104.928 56.1999 104.828 55.9629 104.828 55.6758ZM110.762 65H108.78V56.9473C108.78 56.3867 108.889 55.915 109.108 55.5322C109.331 55.1449 109.643 54.8532 110.045 54.6572C110.45 54.4567 110.931 54.3564 111.487 54.3564C111.669 54.3564 111.845 54.3701 112.013 54.3975C112.182 54.4202 112.346 54.4499 112.505 54.4863L112.485 55.9697C112.398 55.9469 112.307 55.931 112.212 55.9219C112.116 55.9128 112.004 55.9082 111.877 55.9082C111.64 55.9082 111.437 55.9492 111.268 56.0312C111.104 56.1087 110.979 56.2249 110.892 56.3799C110.806 56.5348 110.762 56.724 110.762 56.9473V65ZM112.239 57.6035V58.998H107.679V57.6035H112.239ZM116.211 65.1367C115.637 65.1367 115.122 65.0456 114.666 64.8633C114.211 64.6764 113.823 64.4189 113.504 64.0908C113.19 63.7627 112.948 63.3822 112.78 62.9492C112.611 62.5117 112.527 62.0469 112.527 61.5547V61.2812C112.527 60.7207 112.607 60.208 112.766 59.7432C112.926 59.2783 113.153 58.875 113.45 58.5332C113.75 58.1914 114.115 57.9294 114.543 57.7471C114.972 57.5602 115.455 57.4668 115.993 57.4668C116.517 57.4668 116.982 57.5534 117.387 57.7266C117.793 57.8997 118.132 58.1458 118.406 58.4648C118.684 58.7839 118.893 59.1667 119.035 59.6133C119.176 60.0553 119.246 60.5475 119.246 61.0898V61.9102H113.368V60.5977H117.312V60.4473C117.312 60.1738 117.262 59.93 117.162 59.7158C117.066 59.4971 116.92 59.3239 116.724 59.1963C116.528 59.0687 116.277 59.0049 115.972 59.0049C115.712 59.0049 115.489 59.0618 115.302 59.1758C115.115 59.2897 114.963 59.4492 114.844 59.6543C114.73 59.8594 114.644 60.1009 114.584 60.3789C114.53 60.6523 114.502 60.9531 114.502 61.2812V61.5547C114.502 61.8509 114.543 62.1243 114.625 62.375C114.712 62.6257 114.833 62.8421 114.988 63.0244C115.147 63.2067 115.339 63.348 115.562 63.4482C115.79 63.5485 116.047 63.5986 116.334 63.5986C116.69 63.5986 117.02 63.5303 117.326 63.3936C117.635 63.2523 117.902 63.0404 118.125 62.7578L119.082 63.7969C118.927 64.0202 118.716 64.2344 118.447 64.4395C118.182 64.6445 117.863 64.8132 117.49 64.9453C117.116 65.0729 116.69 65.1367 116.211 65.1367ZM120.163 64.0498C120.163 63.7581 120.264 63.5143 120.464 63.3184C120.669 63.1224 120.94 63.0244 121.278 63.0244C121.615 63.0244 121.884 63.1224 122.084 63.3184C122.289 63.5143 122.392 63.7581 122.392 64.0498C122.392 64.3415 122.289 64.5853 122.084 64.7812C121.884 64.9772 121.615 65.0752 121.278 65.0752C120.94 65.0752 120.669 64.9772 120.464 64.7812C120.264 64.5853 120.163 64.3415 120.163 64.0498ZM125.906 57.6035V65H123.931V57.6035H125.906ZM123.808 55.6758C123.808 55.3887 123.908 55.1517 124.108 54.9648C124.309 54.778 124.578 54.6846 124.915 54.6846C125.248 54.6846 125.514 54.778 125.715 54.9648C125.92 55.1517 126.022 55.3887 126.022 55.6758C126.022 55.9629 125.92 56.1999 125.715 56.3867C125.514 56.5736 125.248 56.667 124.915 56.667C124.578 56.667 124.309 56.5736 124.108 56.3867C123.908 56.1999 123.808 55.9629 123.808 55.6758ZM131.601 63.3867V54.5H133.584V65H131.8L131.601 63.3867ZM126.926 61.3906V61.2471C126.926 60.682 126.989 60.1693 127.117 59.709C127.245 59.2441 127.431 58.8454 127.678 58.5127C127.924 58.18 128.227 57.9225 128.587 57.7402C128.947 57.5579 129.357 57.4668 129.817 57.4668C130.25 57.4668 130.628 57.5579 130.952 57.7402C131.28 57.9225 131.558 58.1823 131.786 58.5195C132.018 58.8522 132.205 59.2464 132.346 59.7021C132.488 60.1533 132.59 60.6478 132.654 61.1855V61.5C132.59 62.015 132.488 62.4935 132.346 62.9355C132.205 63.3776 132.018 63.765 131.786 64.0977C131.558 64.4258 131.28 64.681 130.952 64.8633C130.624 65.0456 130.241 65.1367 129.804 65.1367C129.343 65.1367 128.933 65.0433 128.573 64.8564C128.218 64.6696 127.917 64.4076 127.671 64.0703C127.429 63.7331 127.245 63.3366 127.117 62.8809C126.989 62.4251 126.926 61.9284 126.926 61.3906ZM128.894 61.2471V61.3906C128.894 61.696 128.917 61.9808 128.963 62.2451C129.013 62.5094 129.093 62.7441 129.202 62.9492C129.316 63.1497 129.462 63.307 129.639 63.4209C129.822 63.5303 130.043 63.585 130.303 63.585C130.64 63.585 130.918 63.5098 131.137 63.3594C131.355 63.2044 131.522 62.9925 131.636 62.7236C131.754 62.4548 131.822 62.1449 131.841 61.7939V60.8984C131.827 60.6113 131.786 60.3538 131.718 60.126C131.654 59.8936 131.558 59.6953 131.43 59.5312C131.307 59.3672 131.152 59.2396 130.966 59.1484C130.783 59.0573 130.567 59.0117 130.316 59.0117C130.061 59.0117 129.842 59.071 129.66 59.1895C129.478 59.3034 129.33 59.4606 129.216 59.6611C129.106 59.8617 129.024 60.0986 128.97 60.3721C128.919 60.641 128.894 60.9326 128.894 61.2471ZM134.918 64.0498C134.918 63.7581 135.018 63.5143 135.218 63.3184C135.423 63.1224 135.695 63.0244 136.032 63.0244C136.369 63.0244 136.638 63.1224 136.838 63.3184C137.044 63.5143 137.146 63.7581 137.146 64.0498C137.146 64.3415 137.044 64.5853 136.838 64.7812C136.638 64.9772 136.369 65.0752 136.032 65.0752C135.695 65.0752 135.423 64.9772 135.218 64.7812C135.018 64.5853 134.918 64.3415 134.918 64.0498ZM142.562 55.0469H143.84L147.101 63.1611L150.355 55.0469H151.64L147.593 65H146.595L142.562 55.0469ZM142.145 55.0469H143.273L143.457 61.1172V65H142.145V55.0469ZM150.922 55.0469H152.05V65H150.738V61.1172L150.922 55.0469ZM158.237 63.7354V59.9277C158.237 59.6361 158.178 59.3831 158.06 59.1689C157.946 58.9502 157.772 58.7816 157.54 58.6631C157.308 58.5446 157.021 58.4854 156.679 58.4854C156.36 58.4854 156.079 58.54 155.838 58.6494C155.601 58.7588 155.414 58.9023 155.277 59.0801C155.145 59.2578 155.079 59.4492 155.079 59.6543H153.814C153.814 59.39 153.883 59.1279 154.02 58.8682C154.156 58.6084 154.352 58.3737 154.607 58.1641C154.867 57.9499 155.177 57.7812 155.537 57.6582C155.902 57.5306 156.307 57.4668 156.754 57.4668C157.292 57.4668 157.766 57.5579 158.176 57.7402C158.59 57.9225 158.914 58.1982 159.146 58.5674C159.383 58.932 159.502 59.39 159.502 59.9414V63.3867C159.502 63.6328 159.522 63.8949 159.563 64.1729C159.609 64.4508 159.675 64.6901 159.762 64.8906V65H158.442C158.379 64.8542 158.328 64.6605 158.292 64.4189C158.256 64.1729 158.237 63.945 158.237 63.7354ZM158.456 60.5156L158.47 61.4043H157.191C156.831 61.4043 156.51 61.4339 156.228 61.4932C155.945 61.5479 155.708 61.6322 155.517 61.7461C155.325 61.86 155.179 62.0036 155.079 62.1768C154.979 62.3454 154.929 62.5436 154.929 62.7715C154.929 63.0039 154.981 63.2158 155.086 63.4072C155.191 63.5986 155.348 63.7513 155.558 63.8652C155.772 63.9746 156.034 64.0293 156.344 64.0293C156.731 64.0293 157.073 63.9473 157.369 63.7832C157.665 63.6191 157.9 63.4186 158.073 63.1816C158.251 62.9447 158.347 62.7145 158.36 62.4912L158.9 63.0996C158.868 63.291 158.782 63.5029 158.641 63.7354C158.499 63.9678 158.31 64.1911 158.073 64.4053C157.841 64.6149 157.563 64.7904 157.239 64.9316C156.92 65.0684 156.56 65.1367 156.159 65.1367C155.658 65.1367 155.218 65.0387 154.84 64.8428C154.466 64.6468 154.174 64.3848 153.965 64.0566C153.76 63.724 153.657 63.3525 153.657 62.9424C153.657 62.5459 153.735 62.1973 153.89 61.8965C154.045 61.5911 154.268 61.3382 154.56 61.1377C154.851 60.9326 155.202 60.7777 155.612 60.6729C156.022 60.568 156.48 60.5156 156.986 60.5156H158.456ZM165.853 63.5645V54.5H167.125V65H165.963L165.853 63.5645ZM160.877 61.3838V61.2402C160.877 60.6751 160.945 60.1624 161.082 59.7021C161.223 59.2373 161.421 58.8385 161.677 58.5059C161.936 58.1732 162.244 57.918 162.599 57.7402C162.959 57.5579 163.36 57.4668 163.803 57.4668C164.267 57.4668 164.673 57.5488 165.019 57.7129C165.37 57.8724 165.666 58.1071 165.908 58.417C166.154 58.7223 166.348 59.0915 166.489 59.5244C166.63 59.9574 166.728 60.4473 166.783 60.9941V61.623C166.733 62.1654 166.635 62.653 166.489 63.0859C166.348 63.5189 166.154 63.888 165.908 64.1934C165.666 64.4987 165.37 64.7334 165.019 64.8975C164.668 65.057 164.258 65.1367 163.789 65.1367C163.356 65.1367 162.959 65.0433 162.599 64.8564C162.244 64.6696 161.936 64.4076 161.677 64.0703C161.421 63.7331 161.223 63.3366 161.082 62.8809C160.945 62.4206 160.877 61.9215 160.877 61.3838ZM162.148 61.2402V61.3838C162.148 61.7529 162.185 62.0993 162.258 62.4229C162.335 62.7464 162.454 63.0312 162.613 63.2773C162.773 63.5234 162.975 63.7171 163.221 63.8584C163.468 63.9951 163.762 64.0635 164.103 64.0635C164.523 64.0635 164.867 63.9746 165.136 63.7969C165.409 63.6191 165.628 63.3844 165.792 63.0928C165.956 62.8011 166.083 62.4844 166.175 62.1426V60.4951C166.12 60.2445 166.04 60.0029 165.935 59.7705C165.835 59.5335 165.703 59.3239 165.539 59.1416C165.379 58.9548 165.181 58.8066 164.944 58.6973C164.712 58.5879 164.436 58.5332 164.117 58.5332C163.771 58.5332 163.472 58.6061 163.221 58.752C162.975 58.8932 162.773 59.0892 162.613 59.3398C162.454 59.5859 162.335 59.873 162.258 60.2012C162.185 60.5247 162.148 60.8711 162.148 61.2402ZM171.863 65.1367C171.348 65.1367 170.881 65.0501 170.462 64.877C170.047 64.6992 169.689 64.4508 169.388 64.1318C169.092 63.8128 168.864 63.4346 168.705 62.9971C168.545 62.5596 168.465 62.0811 168.465 61.5615V61.2744C168.465 60.6729 168.554 60.1374 168.732 59.668C168.91 59.194 169.151 58.793 169.457 58.4648C169.762 58.1367 170.108 57.8883 170.496 57.7197C170.883 57.5511 171.284 57.4668 171.699 57.4668C172.227 57.4668 172.683 57.5579 173.066 57.7402C173.453 57.9225 173.77 58.1777 174.016 58.5059C174.262 58.8294 174.445 59.2122 174.563 59.6543C174.682 60.0918 174.741 60.5703 174.741 61.0898V61.6572H169.217V60.625H173.476V60.5293C173.458 60.2012 173.39 59.8822 173.271 59.5723C173.157 59.2624 172.975 59.0072 172.724 58.8066C172.474 58.6061 172.132 58.5059 171.699 58.5059C171.412 58.5059 171.147 58.5674 170.906 58.6904C170.664 58.8089 170.457 58.9867 170.284 59.2236C170.111 59.4606 169.976 59.75 169.88 60.0918C169.785 60.4336 169.737 60.8278 169.737 61.2744V61.5615C169.737 61.9124 169.785 62.2428 169.88 62.5527C169.981 62.8581 170.124 63.127 170.311 63.3594C170.503 63.5918 170.733 63.7741 171.002 63.9062C171.275 64.0384 171.585 64.1045 171.931 64.1045C172.378 64.1045 172.756 64.0133 173.066 63.8311C173.376 63.6488 173.647 63.4049 173.879 63.0996L174.645 63.708C174.486 63.9495 174.283 64.1797 174.037 64.3984C173.791 64.6172 173.488 64.7949 173.128 64.9316C172.772 65.0684 172.351 65.1367 171.863 65.1367ZM180.963 63.6875L182.863 57.6035H183.697L183.533 58.8135L181.599 65H180.785L180.963 63.6875ZM179.685 57.6035L181.305 63.7559L181.421 65H180.567L178.42 57.6035H179.685ZM185.516 63.708L187.061 57.6035H188.319L186.172 65H185.324L185.516 63.708ZM183.882 57.6035L185.741 63.585L185.953 65H185.147L183.157 58.7998L182.993 57.6035H183.882ZM190.691 57.6035V65H189.42V57.6035H190.691ZM189.324 55.6416C189.324 55.4365 189.386 55.2633 189.509 55.1221C189.636 54.9808 189.823 54.9102 190.069 54.9102C190.311 54.9102 190.495 54.9808 190.623 55.1221C190.755 55.2633 190.821 55.4365 190.821 55.6416C190.821 55.8376 190.755 56.0062 190.623 56.1475C190.495 56.2842 190.311 56.3525 190.069 56.3525C189.823 56.3525 189.636 56.2842 189.509 56.1475C189.386 56.0062 189.324 55.8376 189.324 55.6416ZM195.518 57.6035V58.5742H191.519V57.6035H195.518ZM192.873 55.8057H194.137V63.168C194.137 63.4186 194.176 63.6077 194.254 63.7354C194.331 63.863 194.431 63.9473 194.554 63.9883C194.678 64.0293 194.81 64.0498 194.951 64.0498C195.056 64.0498 195.165 64.0407 195.279 64.0225C195.398 63.9997 195.486 63.9814 195.546 63.9678L195.553 65C195.452 65.0319 195.32 65.0615 195.156 65.0889C194.997 65.1208 194.803 65.1367 194.575 65.1367C194.265 65.1367 193.98 65.0752 193.721 64.9521C193.461 64.8291 193.253 64.624 193.098 64.3369C192.948 64.0452 192.873 63.6533 192.873 63.1611V55.8057ZM197.966 54.5V65H196.702V54.5H197.966ZM197.666 61.0215L197.139 61.001C197.144 60.4951 197.219 60.028 197.365 59.5996C197.511 59.1667 197.716 58.7907 197.98 58.4717C198.244 58.1527 198.559 57.9066 198.923 57.7334C199.293 57.5557 199.7 57.4668 200.147 57.4668C200.512 57.4668 200.84 57.5169 201.131 57.6172C201.423 57.7129 201.671 57.8678 201.877 58.082C202.086 58.2962 202.246 58.5742 202.355 58.916C202.464 59.2533 202.519 59.6657 202.519 60.1533V65H201.248V60.1396C201.248 59.7523 201.191 59.4424 201.077 59.21C200.963 58.973 200.796 58.8021 200.578 58.6973C200.359 58.5879 200.09 58.5332 199.771 58.5332C199.457 58.5332 199.17 58.5993 198.91 58.7314C198.655 58.8636 198.434 59.0459 198.247 59.2783C198.064 59.5107 197.921 59.7773 197.816 60.0781C197.716 60.3743 197.666 60.6888 197.666 61.0215ZM208.659 54.5V65H207.388V54.5H208.659ZM210.055 61.3838V61.2266C210.055 60.6934 210.132 60.1989 210.287 59.7432C210.442 59.2829 210.665 58.8841 210.957 58.5469C211.249 58.2051 211.602 57.9408 212.017 57.7539C212.431 57.5625 212.896 57.4668 213.411 57.4668C213.931 57.4668 214.398 57.5625 214.812 57.7539C215.232 57.9408 215.587 58.2051 215.879 58.5469C216.175 58.8841 216.401 59.2829 216.556 59.7432C216.711 60.1989 216.788 60.6934 216.788 61.2266V61.3838C216.788 61.917 216.711 62.4115 216.556 62.8672C216.401 63.3229 216.175 63.7217 215.879 64.0635C215.587 64.4007 215.234 64.665 214.819 64.8564C214.409 65.0433 213.944 65.1367 213.425 65.1367C212.905 65.1367 212.438 65.0433 212.023 64.8564C211.609 64.665 211.253 64.4007 210.957 64.0635C210.665 63.7217 210.442 63.3229 210.287 62.8672C210.132 62.4115 210.055 61.917 210.055 61.3838ZM211.319 61.2266V61.3838C211.319 61.7529 211.363 62.1016 211.449 62.4297C211.536 62.7533 211.666 63.0404 211.839 63.291C212.017 63.5417 212.238 63.7399 212.502 63.8857C212.766 64.027 213.074 64.0977 213.425 64.0977C213.771 64.0977 214.074 64.027 214.334 63.8857C214.598 63.7399 214.817 63.5417 214.99 63.291C215.163 63.0404 215.293 62.7533 215.38 62.4297C215.471 62.1016 215.517 61.7529 215.517 61.3838V61.2266C215.517 60.862 215.471 60.5179 215.38 60.1943C215.293 59.8662 215.161 59.5768 214.983 59.3262C214.81 59.071 214.591 58.8704 214.327 58.7246C214.067 58.5788 213.762 58.5059 213.411 58.5059C213.065 58.5059 212.759 58.5788 212.495 58.7246C212.235 58.8704 212.017 59.071 211.839 59.3262C211.666 59.5768 211.536 59.8662 211.449 60.1943C211.363 60.5179 211.319 60.862 211.319 61.2266ZM220.214 63.8584L222.237 57.6035H223.529L220.87 65H220.022L220.214 63.8584ZM218.525 57.6035L220.61 63.8926L220.754 65H219.906L217.226 57.6035H218.525ZM227.42 65.1367C226.905 65.1367 226.437 65.0501 226.018 64.877C225.603 64.6992 225.246 64.4508 224.945 64.1318C224.649 63.8128 224.421 63.4346 224.261 62.9971C224.102 62.5596 224.022 62.0811 224.022 61.5615V61.2744C224.022 60.6729 224.111 60.1374 224.289 59.668C224.466 59.194 224.708 58.793 225.013 58.4648C225.319 58.1367 225.665 57.8883 226.052 57.7197C226.44 57.5511 226.841 57.4668 227.255 57.4668C227.784 57.4668 228.24 57.5579 228.623 57.7402C229.01 57.9225 229.327 58.1777 229.573 58.5059C229.819 58.8294 230.001 59.2122 230.12 59.6543C230.238 60.0918 230.297 60.5703 230.297 61.0898V61.6572H224.774V60.625H229.033V60.5293C229.015 60.2012 228.946 59.8822 228.828 59.5723C228.714 59.2624 228.532 59.0072 228.281 58.8066C228.03 58.6061 227.688 58.5059 227.255 58.5059C226.968 58.5059 226.704 58.5674 226.462 58.6904C226.221 58.8089 226.014 58.9867 225.84 59.2236C225.667 59.4606 225.533 59.75 225.437 60.0918C225.341 60.4336 225.294 60.8278 225.294 61.2744V61.5615C225.294 61.9124 225.341 62.2428 225.437 62.5527C225.537 62.8581 225.681 63.127 225.868 63.3594C226.059 63.5918 226.289 63.7741 226.558 63.9062C226.832 64.0384 227.142 64.1045 227.488 64.1045C227.934 64.1045 228.313 64.0133 228.623 63.8311C228.933 63.6488 229.204 63.4049 229.436 63.0996L230.202 63.708C230.042 63.9495 229.839 64.1797 229.593 64.3984C229.347 64.6172 229.044 64.7949 228.684 64.9316C228.329 65.0684 227.907 65.1367 227.42 65.1367Z" fill="white"/>
</svg>
