<svg width="48" height="48" viewBox="0 0 48 48" fill="none" xmlns="http://www.w3.org/2000/svg">
<path fill-rule="evenodd" clip-rule="evenodd" d="M46.5 30C46.5 31.6569 45.1569 33 43.5 33H37.5H10.5H4.5C2.84314 33 1.5 31.6569 1.5 30V24V15V9C1.5 7.34314 2.84314 6 4.5 6H10.5H37.5H43.5C45.1569 6 46.5 7.34314 46.5 9V15V24V30ZM4.5 25.6905V30H8.80947C8.73959 29.7293 8.65072 29.4633 8.54328 29.2039C8.24175 28.4759 7.79979 27.8145 7.24264 27.2574C6.68549 26.7002 6.02405 26.2583 5.2961 25.9567C5.0367 25.8493 4.77066 25.7604 4.5 25.6905ZM11.8741 30C11.7616 29.3346 11.5744 28.6823 11.3149 28.0558C10.8626 26.9639 10.1997 25.9718 9.36396 25.136C8.52823 24.3003 7.53608 23.6374 6.44415 23.1851C5.8177 22.9256 5.16544 22.7384 4.5 22.6259V16.3741C5.16544 16.2616 5.8177 16.0744 6.44415 15.8149C7.53608 15.3626 8.52823 14.6997 9.36396 13.864C10.1997 13.0282 10.8626 12.0361 11.3149 10.9442C11.5744 10.3177 11.7616 9.66544 11.8741 9H36.1258C36.4352 10.8305 37.306 12.5339 38.636 13.864C39.9661 15.194 41.6695 16.0648 43.5 16.3742V22.6258C41.6695 22.9352 39.9661 23.806 38.636 25.136C37.306 26.4661 36.4352 28.1695 36.1258 30H11.8741ZM43.5 30H39.1905C39.4562 28.971 39.993 28.0217 40.7574 27.2574C41.5217 26.493 42.471 25.9562 43.5 25.6905V30ZM8.80947 9H4.5V13.3095C4.77066 13.2396 5.0367 13.1507 5.2961 13.0433C6.02405 12.7417 6.68549 12.2998 7.24264 11.7426C7.79979 11.1855 8.24175 10.5241 8.54328 9.7961C8.65072 9.5367 8.73959 9.27066 8.80947 9ZM40.7574 11.7426C41.5217 12.507 42.471 13.0438 43.5 13.3095V9H39.1905C39.4562 10.029 39.993 10.9783 40.7574 11.7426ZM7.5 38.5C7.5 37.6716 8.17157 37 9 37H39C39.8284 37 40.5 37.6716 40.5 38.5C40.5 39.3284 39.8284 40 39 40H9C8.17157 40 7.5 39.3284 7.5 38.5ZM18 19.5C18 16.1863 20.6863 13.5 24 13.5C27.3137 13.5 30 16.1863 30 19.5C30 22.8137 27.3137 25.5 24 25.5C20.6863 25.5 18 22.8137 18 19.5ZM24 10.5C19.0294 10.5 15 14.5294 15 19.5C15 24.4706 19.0294 28.5 24 28.5C28.9706 28.5 33 24.4706 33 19.5C33 14.5294 28.9706 10.5 24 10.5Z" fill="#888888"/>
</svg>
