<svg width="48" height="48" viewBox="0 0 48 48" fill="none" xmlns="http://www.w3.org/2000/svg">
<path fill-rule="evenodd" clip-rule="evenodd" d="M19.5 3C19.0352 3 18.5967 3.21546 18.3126 3.58338C18.0286 3.95129 17.9312 4.43009 18.0489 4.87974C19.1826 9.21208 17.2996 12.9016 14.7207 16.934C14.4317 17.3859 14.1323 17.8448 13.8291 18.3094C12.8257 19.8472 11.7818 21.4469 10.9448 23.0557C9.83999 25.1788 9 27.4827 9 30C9 33.9782 10.5804 37.7936 13.3934 40.6066C16.2064 43.4196 20.0218 45 24 45C27.9782 45 31.7936 43.4196 34.6066 40.6066C37.4196 37.7936 39 33.9782 39 30C39 21.3744 35.907 14.6548 31.9553 10.0817C28.0673 5.58249 23.1884 3 19.5 3ZM17.248 18.5504C19.4935 15.0394 21.769 11.019 21.3318 6.2733C23.7597 6.93514 26.893 8.8119 29.6854 12.0433C33.1868 16.0952 36 22.1256 36 30C36 33.1826 34.7357 36.2348 32.4853 38.4853C31.7126 39.258 30.8454 39.9144 29.9109 40.4433C30.9303 38.9555 31.5 36.9682 31.5 34.5C31.5 31.3758 30.0636 28.0657 28.1728 25.5662C27.2169 24.3025 26.1017 23.1871 24.9134 22.3755C23.7392 21.5736 22.391 21 21 21C20.553 21 20.1293 21.1993 19.8444 21.5437C19.5594 21.8881 19.4429 22.3416 19.5265 22.7807C19.7983 24.2077 19.2926 25.4234 18.4189 27.3201L18.3752 27.4149C17.5421 29.2224 16.5 31.4832 16.5 34.5C16.5 36.9682 17.0697 38.9555 18.0891 40.4433C17.1546 39.9144 16.2874 39.258 15.5147 38.4853C13.2643 36.2348 12 33.1826 12 30C12 28.158 12.6131 26.3486 13.606 24.4404C14.3684 22.9754 15.299 21.5485 16.284 20.0383L16.2842 20.038C16.6011 19.5521 16.9237 19.0576 17.248 18.5504ZM21.1959 28.462C21.7434 27.2746 22.3557 25.9469 22.5417 24.4435C22.7588 24.5561 22.9858 24.6919 23.2214 24.8528C24.0898 25.4459 24.9784 26.316 25.7803 27.3761C27.4051 29.524 28.5 32.2138 28.5 34.5C28.5 36.9295 27.8309 38.4003 27.0312 39.2524C26.2316 40.1044 25.1511 40.5 24 40.5C22.8489 40.5 21.7684 40.1044 20.9688 39.2524C20.1691 38.4003 19.5 36.9295 19.5 34.5C19.5 32.1595 20.296 30.4152 21.1436 28.5753L21.1959 28.462Z" fill="#888888"/>
</svg>
