<svg width="465" height="281" viewBox="0 0 465 281" fill="none" xmlns="http://www.w3.org/2000/svg">
<g opacity="0.5" clip-path="url(#clip0_383_317)">
<path d="M1.40087 281C1.40087 281 -6.34705 198.554 27.6836 168.123C59.7247 145.257 86.3773 131.371 140.695 129.621C195.013 127.871 224.791 127.862 257.211 91.9984C289.63 56.1346 333.461 1.94327 382.478 0.122822C429.787 -1.63607 458.694 13.2441 485.848 118.25C513.003 223.255 484.968 277.5 484.087 278.37C483.48 278.995 1.40087 281 1.40087 281Z" fill="#FFF7F7"/>
<path d="M221.885 212.482C224.87 176.425 213.75 123.658 226.728 116.315C239.539 109.077 243.906 106.711 257.202 91.9984C289.613 56.1258 333.417 1.93448 382.478 0.122822C429.787 -1.63607 458.694 13.2441 485.848 118.25C499.425 170.753 498.624 198.49 497.295 215.068C496.573 224.188 495.851 236.06 495.41 236.491C494.803 237.115 219.411 242.427 221.885 212.482Z" fill="#FFDCDA"/>
<path d="M112.167 96.0878L108.275 279.241C108.275 280.551 111.797 280.12 112.678 280.12H117.961L117.15 96.3868L148.619 97.2663L134.954 20.1654C134.612 18.2304 133.599 16.4777 132.092 15.2151C130.584 13.9525 128.68 13.2609 126.713 13.2618H105C102.485 13.2549 100.048 14.1324 98.1161 15.7404C96.1841 17.3484 94.8805 19.5843 94.4338 22.0562L81.1296 95.5162L112.167 96.0878Z" fill="#FFDCDA"/>
<path d="M108.275 279.241L112.167 96.0879L117.151 96.3869L117.961 280.12H112.678C111.797 280.12 108.275 280.551 108.275 279.241Z" fill="#EE9591"/>
<path d="M57.9814 236.957C57.9814 236.957 57.7878 244.134 59.0028 244.934C59.5245 245.343 60.1235 245.642 60.7638 245.813L66.8128 278.414C66.8128 278.414 84.5459 281.633 93.4125 278.01L99.4615 245.805L101.478 244.996L102.288 236.949C102.288 236.949 80.5485 229.711 57.9814 236.957Z" fill="#FFDCDA"/>
<path d="M60.0153 245.602C60.0153 245.602 83.7887 247.423 86.5974 246.622C89.4062 245.822 88.6138 239.376 88.6138 239.376L100.298 238.171C100.298 238.171 100.298 245.013 99.4879 245.822C98.5951 246.893 97.9112 248.122 97.4715 249.445C97.4715 249.85 92.6376 278.467 92.6376 278.467C92.6376 278.467 84.9774 279.672 83.7711 279.672C82.5648 279.672 86.9936 255.971 86.9936 254.309C86.9936 252.647 86.9936 249.481 85.7873 249.481C84.5811 249.481 61.2744 250.175 61.1335 247.581C60.9439 246.834 60.5579 246.151 60.0153 245.602Z" fill="#EE9591"/>
<path d="M69.3749 238.461C69.3749 238.461 62.7449 233.809 59.2229 233.387C55.7009 232.965 51.6154 232.507 48.0935 231.962C44.5715 231.417 40.081 229.843 40.169 227.785C40.2571 225.727 40.6797 224.742 42.7488 223.519C44.4934 222.385 46.47 221.655 48.5337 221.382C50.0834 221.242 65.9851 225.366 72.6152 235.225L75.2567 238.461H69.3749Z" fill="#888888"/>
<path d="M46.4205 226.958C46.4205 226.958 52.5135 226.879 55.8506 227.961C58.4596 228.935 60.9885 230.111 63.4141 231.479L73.39 238.417" fill="#F7C7C4"/>
<path d="M46.4205 226.958C46.4205 226.958 52.5135 226.879 55.8506 227.961C58.4596 228.935 60.9885 230.111 63.4141 231.479L73.39 238.417" stroke="white" stroke-width="0.379514" stroke-miterlimit="10" stroke-linecap="round"/>
<path d="M76.3573 238.189C76.3573 238.189 68.6441 227.723 65.6416 224.777C62.6391 221.831 59.126 218.463 56.2292 215.385C53.3324 212.307 49.6783 207.892 51.2191 206.08C52.76 204.269 53.8607 203.037 56.6694 203.442C58.8655 203.676 60.9685 204.453 62.7888 205.702C64.3385 206.705 78.3471 220.046 80.3987 235.375L82.4151 238.479L76.3573 238.189Z" fill="#888888"/>
<path d="M58.2368 209.598C58.2368 209.598 64.2417 213.186 66.6015 216.633C68.8291 219.852 72.3598 225.612 72.3598 225.612L76.3661 236.597" stroke="white" stroke-width="0.379514" stroke-miterlimit="10" stroke-linecap="round"/>
<path d="M80.2138 238.707C80.2138 238.707 71.2064 219.175 69.5246 215.314C67.8429 211.453 60.9663 205.64 59.443 201.7C57.9198 197.76 56.9512 194.893 58.5625 192.73C60.1738 190.566 64.3121 188.772 66.9535 190.091C69.4453 191.305 72.6856 194.999 74.0768 196.872C75.1862 198.349 82.5559 224.882 81.9484 231.003L83.3571 238.839L80.2138 238.707Z" fill="#F7C7C4"/>
<path d="M64.3474 197.286C64.3474 197.286 69.5159 203.934 71.0831 207.839C72.8441 212.236 74.6051 220.617 74.3762 219.272L79.756 237.415" stroke="white" stroke-width="0.379514" stroke-miterlimit="10" stroke-linecap="round"/>
<path d="M75.2743 238.558C75.2743 238.558 67.3499 229.526 63.4845 227.776C59.6192 226.026 55.2255 224.047 51.4481 222.165C47.6708 220.283 43.1363 217.091 43.9024 215.174C44.6684 213.256 45.452 212.483 48.1815 212.122C50.5663 211.719 53.0069 211.785 55.3664 212.315C57.1274 212.773 73.6807 222.763 77.9334 234.627L79.8969 238.716L75.2743 238.558Z" fill="#F7C7C4"/>
<path d="M51.2104 216.81C51.2104 216.81 58.0694 219.061 61.4769 221.365C64.0717 223.262 66.5312 225.336 68.8378 227.574L76.4453 238.637" stroke="white" stroke-width="0.379514" stroke-miterlimit="10" stroke-linecap="round"/>
<path d="M96.0011 238.76C96.0011 238.76 103.177 234.363 106.99 233.915C110.802 233.466 115.213 233.088 119.035 232.551C122.856 232.015 127.708 230.529 127.611 228.559C127.514 226.589 127.065 225.648 124.82 224.478C122.892 223.383 120.763 222.688 118.559 222.438C116.878 222.306 99.6727 226.237 92.4967 235.629L89.5999 238.725L96.0011 238.76Z" fill="#888888"/>
<path d="M120.822 227.785C120.822 227.785 114.236 227.706 110.617 228.744C107.811 229.66 105.075 230.777 102.429 232.086L92.8577 238.506" fill="#F7C7C4"/>
<path d="M120.822 227.785C120.822 227.785 114.236 227.706 110.617 228.744C107.811 229.66 105.075 230.777 102.429 232.086L92.8577 238.506" stroke="white" stroke-width="0.379514" stroke-miterlimit="10" stroke-linecap="round"/>
<path d="M88.4376 238.505C88.4376 238.505 96.7759 228.515 100.034 225.7C103.292 222.886 107.078 219.667 110.221 216.73C113.364 213.793 117.309 209.58 115.636 207.839C113.963 206.098 112.783 204.928 109.737 205.297C107.395 205.508 105.132 206.245 103.115 207.452C101.434 208.402 86.2804 221.154 84.0616 235.788L81.8868 238.751L88.4376 238.505Z" fill="#888888"/>
<path d="M108.055 211.216C108.055 211.216 101.557 214.637 99.0035 217.9C96.591 220.978 92.7785 226.475 92.7785 226.475L88.4376 236.958" stroke="white" stroke-width="0.379514" stroke-miterlimit="10" stroke-linecap="round"/>
<path d="M84.2817 239.007C84.2817 239.007 94.0288 220.354 95.8426 216.66C97.6564 212.967 105.105 207.444 106.752 203.662C108.398 199.88 109.446 197.154 107.72 195.096C105.995 193.038 101.495 191.315 98.6426 192.546C95.9483 193.707 92.4792 197.233 90.9383 199.019C89.7408 200.434 81.7635 225.762 82.4151 231.62L80.8918 239.104L84.2817 239.007Z" fill="#F7C7C4"/>
<path d="M83.3397 238.769C83.3397 238.769 84.1233 220.565 85.9812 214.655C87.2403 210.741 88.4729 204.101 90.1194 200.364C91.766 196.626 89.2389 191.71 87.5484 189.643C85.8578 187.577 81.385 187.972 78.497 189.195C75.8027 190.356 74.2529 194.111 73.9095 196.116C73.6014 197.945 80.073 219.905 79.3862 227.934L79.9409 238.875L83.3397 238.769Z" fill="#888888"/>
<path d="M101.443 199.476C101.443 199.476 95.8514 205.825 94.152 209.545C92.2326 213.758 90.3219 221.752 90.6301 220.433L84.2994 238.198" stroke="white" stroke-width="0.379514" stroke-miterlimit="10" stroke-linecap="round"/>
<path d="M89.6176 238.866C89.6176 238.866 98.2376 230.238 102.376 228.567C106.514 226.896 111.313 225.05 115.398 223.211C119.484 221.373 124.388 218.366 123.561 216.537C122.733 214.707 121.879 213.969 118.929 213.626C116.346 213.241 113.716 213.303 111.154 213.81C109.217 214.25 91.3433 223.783 86.7384 235.119L84.6163 239.024L89.6176 238.866Z" fill="#F7C7C4"/>
<path d="M115.663 218.084C115.663 218.084 108.24 220.23 104.56 222.429C101.772 224.223 99.1101 226.203 96.591 228.356L88.1911 237.661" stroke="white" stroke-width="0.379514" stroke-miterlimit="10" stroke-linecap="round"/>
<path d="M81.561 193.082C81.561 193.082 83.0578 208.675 82.1861 212.87C81.8251 214.628 82.0013 225.595 82.0013 225.595L81.6402 237.74" stroke="white" stroke-width="0.379514" stroke-miterlimit="10" stroke-linecap="round"/>
<path d="M81.8956 91.4092L147.237 92.614L148.575 97.2487L81.1208 95.4986L81.8956 91.4092Z" fill="#888888"/>
<path d="M403.161 102.746L402.624 230.977L484.158 231.197C484.158 231.197 484.748 163.665 481.516 98.9905L403.328 97.8208L403.161 102.746Z" fill="#EE9591"/>
<path d="M326.444 119.323L324.278 231.276H393.969L393.476 119.323H326.444Z" fill="#EE9591"/>
<path d="M225.24 185.018L325.405 185.536L324.278 231.276L225.618 231.241L225.24 185.018Z" fill="#EE9591"/>
<path d="M216.99 120.484L217.236 231.514C217.236 231.514 217.844 238.497 224.527 238.796C231.21 239.095 494.618 239.209 494.618 239.209C494.618 239.209 496.969 231.848 496.062 231.54C495.155 231.233 225.619 231.241 225.619 231.241C225.619 231.241 225.698 227.31 225.698 224.795C225.698 221.998 225.548 116.984 225.548 116.984C222.819 118.433 219.952 119.606 216.99 120.484Z" fill="white"/>
<path d="M222.801 131.512L489.317 133.104L490.726 138.873L222.801 140.157V131.512Z" fill="white"/>
<path d="M298.004 45.0538V231.47L305.039 232.015V40.1904L298.004 45.0538Z" fill="white"/>
<path d="M305.039 40.1903L457.144 41.1137L452.768 33.2427L313.694 33.1724L305.039 40.1903Z" fill="white"/>
<path d="M330.679 76.9076C339.218 76.9076 346.14 69.9935 346.14 61.4645C346.14 52.9356 339.218 46.0215 330.679 46.0215C322.14 46.0215 315.217 52.9356 315.217 61.4645C315.217 69.9935 322.14 76.9076 330.679 76.9076Z" fill="#888888"/>
<path d="M345.727 76.5559C351.324 76.5559 355.861 72.0239 355.861 66.4334C355.861 60.843 351.324 56.311 345.727 56.311C340.129 56.311 335.592 60.843 335.592 66.4334C335.592 72.0239 340.129 76.5559 345.727 76.5559Z" fill="#888888"/>
<path d="M428.44 104.129C437.14 104.129 444.192 97.0846 444.192 88.3954C444.192 79.7061 437.14 72.6621 428.44 72.6621C419.74 72.6621 412.688 79.7061 412.688 88.3954C412.688 97.0846 419.74 104.129 428.44 104.129Z" fill="#888888"/>
<path d="M412.559 100.497C416.603 100.497 419.882 97.4388 419.882 93.6668C419.882 89.8947 416.603 86.8369 412.559 86.8369C408.514 86.8369 405.235 89.8947 405.235 93.6668C405.235 97.4388 408.514 100.497 412.559 100.497Z" fill="#888888"/>
<path d="M425.288 7.54541L425.129 231.47L431.628 230.933L432.64 11.9162L425.288 7.54541Z" fill="white"/>
</g>
<defs>
<clipPath id="clip0_383_317">
<rect width="498" height="281" fill="white"/>
</clipPath>
</defs>
</svg>
