<svg width="48" height="48" viewBox="0 0 48 48" fill="none" xmlns="http://www.w3.org/2000/svg">
<path fill-rule="evenodd" clip-rule="evenodd" d="M6 24C6 14.0589 14.0589 6 24 6C33.9411 6 42 14.0589 42 24C42 33.9411 33.9411 42 24 42C14.0589 42 6 33.9411 6 24ZM24 3C12.402 3 3 12.402 3 24C3 35.598 12.402 45 24 45C35.598 45 45 35.598 45 24C45 12.402 35.598 3 24 3ZM19.5 21.75C19.5 22.9926 18.4926 24 17.25 24C16.0074 24 15 22.9926 15 21.75C15 20.5074 16.0074 19.5 17.25 19.5C18.4926 19.5 19.5 20.5074 19.5 21.75ZM15.0319 29.4534C16.1653 33.2315 19.7466 36 24.0047 36C28.2628 36 31.845 33.2315 32.9691 29.4534C33.0008 29.341 33.0058 29.2227 32.9837 29.108C32.9616 28.9933 32.913 28.8853 32.8418 28.7927C32.7706 28.7001 32.6787 28.6254 32.5735 28.5746C32.4683 28.5238 32.3528 28.4982 32.2359 28.5H15.765C15.6482 28.4982 15.5326 28.5238 15.4274 28.5746C15.3222 28.6254 15.2304 28.7001 15.1592 28.7927C15.088 28.8853 15.0394 28.9933 15.0173 29.108C14.9952 29.2227 15.0002 29.341 15.0319 29.4534ZM30.75 24C31.9926 24 33 22.9926 33 21.75C33 20.5074 31.9926 19.5 30.75 19.5C29.5074 19.5 28.5 20.5074 28.5 21.75C28.5 22.9926 29.5074 24 30.75 24Z" fill="#888888"/>
</svg>
