<svg width="394" height="320" viewBox="0 0 394 320" fill="none" xmlns="http://www.w3.org/2000/svg">
<g filter="url(#filter0_d_353_116)">
<rect x="10" y="10" width="274" height="200" rx="16" fill="#FFFBFB"/>
</g>
<path d="M183.366 61.8203C188.842 75.4619 179.991 97.1733 165.217 107.1C150.443 117.027 129.81 115.234 118.92 105.883C108.031 96.5328 106.885 79.6249 111.724 66.8158C116.564 54.0708 127.39 45.4247 142.737 43.9516C158.084 42.4786 177.889 48.1786 183.366 61.8203Z" fill="#F7C7C4"/>
<path d="M55.457 167H52.2578V148.516H55.457V167ZM61.6697 153.264L61.7586 154.851C62.7742 153.623 64.1072 153.01 65.7576 153.01C68.6183 153.01 70.074 154.647 70.1248 157.923V167H67.0398V158.101C67.0398 157.229 66.8494 156.586 66.4686 156.171C66.0962 155.748 65.4826 155.536 64.6277 155.536C63.3836 155.536 62.4568 156.099 61.8475 157.225V167H58.7625V153.264H61.6697ZM76.8453 149.925V153.264H79.2701V155.549H76.8453V163.217C76.8453 163.742 76.9469 164.122 77.15 164.359C77.3616 164.588 77.734 164.702 78.2672 164.702C78.6227 164.702 78.9824 164.66 79.3463 164.575V166.962C78.6438 167.157 77.9667 167.254 77.315 167.254C74.9452 167.254 73.7604 165.946 73.7604 163.331V155.549H71.5006V153.264H73.7604V149.925H76.8453ZM87.3871 167.254C85.432 167.254 83.8451 166.64 82.6264 165.413C81.4161 164.177 80.8109 162.535 80.8109 160.487V160.106C80.8109 158.735 81.0733 157.512 81.598 156.438C82.1312 155.354 82.876 154.512 83.8324 153.911C84.7888 153.31 85.8552 153.01 87.0316 153.01C88.9021 153.01 90.3451 153.606 91.3607 154.8C92.3848 155.993 92.8969 157.682 92.8969 159.865V161.109H83.9213C84.0144 162.243 84.391 163.141 85.0512 163.801C85.7198 164.461 86.5577 164.791 87.5648 164.791C88.9783 164.791 90.1293 164.22 91.018 163.077L92.6811 164.664C92.1309 165.485 91.3946 166.124 90.4721 166.581C89.558 167.03 88.5297 167.254 87.3871 167.254ZM87.0189 155.485C86.1726 155.485 85.487 155.782 84.9623 156.374C84.446 156.966 84.1159 157.792 83.9721 158.85H89.85V158.621C89.7823 157.589 89.5072 156.81 89.0248 156.285C88.5424 155.752 87.8738 155.485 87.0189 155.485ZM97.8654 153.264L97.9543 154.851C98.9699 153.623 100.303 153.01 101.953 153.01C104.814 153.01 106.27 154.647 106.321 157.923V167H103.236V158.101C103.236 157.229 103.045 156.586 102.664 156.171C102.292 155.748 101.678 155.536 100.823 155.536C99.5793 155.536 98.6525 156.099 98.0432 157.225V167H94.9582V153.264H97.8654ZM116.875 163.268C116.875 162.717 116.646 162.299 116.189 162.011C115.741 161.723 114.992 161.469 113.942 161.249C112.893 161.029 112.017 160.75 111.314 160.411C109.774 159.666 109.004 158.587 109.004 157.174C109.004 155.989 109.503 154.999 110.502 154.203C111.501 153.408 112.77 153.01 114.311 153.01C115.952 153.01 117.277 153.416 118.284 154.229C119.3 155.041 119.808 156.095 119.808 157.39H116.723C116.723 156.797 116.503 156.306 116.062 155.917C115.622 155.519 115.038 155.32 114.311 155.32C113.633 155.32 113.079 155.477 112.647 155.79C112.224 156.103 112.013 156.522 112.013 157.047C112.013 157.521 112.212 157.889 112.609 158.151C113.007 158.414 113.811 158.68 115.021 158.951C116.232 159.214 117.18 159.531 117.865 159.903C118.559 160.267 119.071 160.707 119.401 161.224C119.74 161.74 119.909 162.366 119.909 163.103C119.909 164.338 119.397 165.341 118.373 166.111C117.349 166.873 116.007 167.254 114.349 167.254C113.223 167.254 112.22 167.051 111.34 166.645C110.46 166.238 109.774 165.68 109.283 164.969C108.792 164.258 108.547 163.492 108.547 162.671H111.543C111.585 163.399 111.86 163.962 112.368 164.359C112.876 164.749 113.549 164.943 114.387 164.943C115.199 164.943 115.817 164.791 116.24 164.486C116.663 164.173 116.875 163.767 116.875 163.268ZM132.944 148.516L138.276 162.684L143.595 148.516H147.747V167H144.547V160.906L144.865 152.756L139.406 167H137.108L131.662 152.769L131.979 160.906V167H128.78V148.516H132.944ZM157.006 167.254C155.051 167.254 153.464 166.64 152.246 165.413C151.035 164.177 150.43 162.535 150.43 160.487V160.106C150.43 158.735 150.692 157.512 151.217 156.438C151.75 155.354 152.495 154.512 153.452 153.911C154.408 153.31 155.474 153.01 156.651 153.01C158.521 153.01 159.964 153.606 160.98 154.8C162.004 155.993 162.516 157.682 162.516 159.865V161.109H153.54C153.634 162.243 154.01 163.141 154.67 163.801C155.339 164.461 156.177 164.791 157.184 164.791C158.597 164.791 159.748 164.22 160.637 163.077L162.3 164.664C161.75 165.485 161.014 166.124 160.091 166.581C159.177 167.03 158.149 167.254 157.006 167.254ZM156.638 155.485C155.792 155.485 155.106 155.782 154.581 156.374C154.065 156.966 153.735 157.792 153.591 158.85H159.469V158.621C159.401 157.589 159.126 156.81 158.644 156.285C158.162 155.752 157.493 155.485 156.638 155.485ZM167.485 153.264L167.573 154.851C168.589 153.623 169.922 153.01 171.572 153.01C174.433 153.01 175.889 154.647 175.94 157.923V167H172.855V158.101C172.855 157.229 172.664 156.586 172.283 156.171C171.911 155.748 171.297 155.536 170.443 155.536C169.198 155.536 168.272 156.099 167.662 157.225V167H164.577V153.264H167.485ZM182.66 149.925V153.264H185.085V155.549H182.66V163.217C182.66 163.742 182.762 164.122 182.965 164.359C183.176 164.588 183.549 164.702 184.082 164.702C184.438 164.702 184.797 164.66 185.161 164.575V166.962C184.459 167.157 183.782 167.254 183.13 167.254C180.76 167.254 179.575 165.946 179.575 163.331V155.549H177.315V153.264H179.575V149.925H182.66ZM186.194 160.005C186.194 158.659 186.461 157.449 186.994 156.374C187.527 155.291 188.276 154.461 189.241 153.886C190.206 153.302 191.315 153.01 192.567 153.01C194.421 153.01 195.923 153.606 197.074 154.8C198.234 155.993 198.86 157.576 198.953 159.548L198.966 160.271C198.966 161.626 198.703 162.836 198.179 163.902C197.662 164.969 196.917 165.794 195.944 166.378C194.979 166.962 193.862 167.254 192.593 167.254C190.654 167.254 189.101 166.611 187.933 165.324C186.774 164.029 186.194 162.307 186.194 160.157V160.005ZM189.279 160.271C189.279 161.685 189.571 162.794 190.155 163.598C190.739 164.393 191.552 164.791 192.593 164.791C193.634 164.791 194.442 164.385 195.017 163.572C195.601 162.76 195.893 161.571 195.893 160.005C195.893 158.617 195.593 157.517 194.992 156.704C194.4 155.892 193.591 155.485 192.567 155.485C191.56 155.485 190.76 155.887 190.168 156.691C189.575 157.487 189.279 158.68 189.279 160.271ZM208.466 156.082C208.06 156.014 207.641 155.98 207.21 155.98C205.796 155.98 204.844 156.522 204.353 157.605V167H201.268V153.264H204.213L204.29 154.8C205.034 153.606 206.067 153.01 207.387 153.01C207.827 153.01 208.191 153.069 208.479 153.188L208.466 156.082ZM213.397 167H210.312V153.264H213.397V167ZM210.121 149.696C210.121 149.222 210.27 148.829 210.566 148.516C210.871 148.202 211.302 148.046 211.861 148.046C212.419 148.046 212.851 148.202 213.156 148.516C213.46 148.829 213.613 149.222 213.613 149.696C213.613 150.162 213.46 150.551 213.156 150.864C212.851 151.169 212.419 151.321 211.861 151.321C211.302 151.321 210.871 151.169 210.566 150.864C210.27 150.551 210.121 150.162 210.121 149.696ZM219.33 153.264L219.419 154.851C220.435 153.623 221.768 153.01 223.418 153.01C226.279 153.01 227.735 154.647 227.785 157.923V167H224.7V158.101C224.7 157.229 224.51 156.586 224.129 156.171C223.757 155.748 223.143 155.536 222.288 155.536C221.044 155.536 220.117 156.099 219.508 157.225V167H216.423V153.264H219.33ZM230.101 160.03C230.101 157.897 230.6 156.196 231.599 154.927C232.606 153.649 233.939 153.01 235.598 153.01C237.163 153.01 238.395 153.556 239.292 154.647L239.432 153.264H242.212V166.581C242.212 168.384 241.649 169.806 240.523 170.847C239.406 171.888 237.896 172.408 235.991 172.408C234.984 172.408 233.998 172.197 233.033 171.773C232.077 171.359 231.349 170.813 230.85 170.136L232.31 168.282C233.257 169.408 234.425 169.971 235.813 169.971C236.838 169.971 237.646 169.691 238.238 169.133C238.831 168.583 239.127 167.77 239.127 166.695V165.769C238.238 166.759 237.053 167.254 235.572 167.254C233.964 167.254 232.648 166.615 231.624 165.337C230.608 164.059 230.101 162.29 230.101 160.03ZM233.173 160.297C233.173 161.676 233.452 162.764 234.011 163.56C234.578 164.347 235.361 164.74 236.359 164.74C237.604 164.74 238.526 164.207 239.127 163.141V157.098C238.543 156.057 237.629 155.536 236.385 155.536C235.369 155.536 234.578 155.938 234.011 156.742C233.452 157.546 233.173 158.731 233.173 160.297Z" fill="#888888"/>
<path fill-rule="evenodd" clip-rule="evenodd" d="M129 79C129 69.0589 137.059 61 147 61C156.941 61 165 69.0589 165 79C165 88.9411 156.941 97 147 97C137.059 97 129 88.9411 129 79ZM147 58C135.402 58 126 67.402 126 79C126 90.598 135.402 100 147 100C158.598 100 168 90.598 168 79C168 67.402 158.598 58 147 58ZM142.5 76.75C142.5 77.9926 141.493 79 140.25 79C139.007 79 138 77.9926 138 76.75C138 75.5074 139.007 74.5 140.25 74.5C141.493 74.5 142.5 75.5074 142.5 76.75ZM138.032 84.4534C139.165 88.2315 142.747 91 147.005 91C151.263 91 154.845 88.2315 155.969 84.4534C156.001 84.341 156.006 84.2227 155.984 84.108C155.962 83.9933 155.913 83.8853 155.842 83.7927C155.771 83.7001 155.679 83.6254 155.574 83.5746C155.468 83.5238 155.353 83.4982 155.236 83.5H138.765C138.648 83.4982 138.533 83.5238 138.427 83.5746C138.322 83.6254 138.23 83.7001 138.159 83.7927C138.088 83.8853 138.039 83.9933 138.017 84.108C137.995 84.2227 138 84.341 138.032 84.4534ZM153.75 79C154.993 79 156 77.9926 156 76.75C156 75.5074 154.993 74.5 153.75 74.5C152.507 74.5 151.5 75.5074 151.5 76.75C151.5 77.9926 152.507 79 153.75 79Z" fill="#888888"/>
<defs>
<filter id="filter0_d_353_116" x="0" y="0" width="394" height="320" filterUnits="userSpaceOnUse" color-interpolation-filters="sRGB">
<feFlood flood-opacity="0" result="BackgroundImageFix"/>
<feColorMatrix in="SourceAlpha" type="matrix" values="0 0 0 0 0 0 0 0 0 0 0 0 0 0 0 0 0 0 127 0" result="hardAlpha"/>
<feOffset dx="50" dy="50"/>
<feGaussianBlur stdDeviation="30"/>
<feColorMatrix type="matrix" values="0 0 0 0 0.333333 0 0 0 0 0.333333 0 0 0 0 0.333333 0 0 0 0.08 0"/>
<feBlend mode="normal" in2="BackgroundImageFix" result="effect1_dropShadow_353_116"/>
<feBlend mode="normal" in="SourceGraphic" in2="effect1_dropShadow_353_116" result="shape"/>
</filter>
</defs>
</svg>
