<svg width="48" height="48" viewBox="0 0 48 48" fill="none" xmlns="http://www.w3.org/2000/svg">
<path fill-rule="evenodd" clip-rule="evenodd" d="M13.5 15C13.5 9.20101 18.201 4.5 24 4.5C29.799 4.5 34.5 9.20101 34.5 15C34.5 16.8216 34.0362 18.5348 33.2201 20.028C33.1032 20.1656 33.0133 20.322 32.9529 20.4888C31.447 22.9399 28.9627 24.7253 26.044 25.3012C26.0135 25.3061 25.9831 25.3119 25.953 25.3187C25.3202 25.4377 24.6674 25.5 24 25.5C18.201 25.5 13.5 20.799 13.5 15ZM37.5 15C37.5 17.1624 36.9916 19.2061 36.0877 21.018L44.8122 36.7733C45.0702 37.2391 45.0619 37.8067 44.7904 38.2647C44.519 38.7227 44.0251 39.0026 43.4927 39L35.3493 38.9606L31.2882 45.7685C31.0023 46.2478 30.4739 46.5287 29.9166 46.4977C29.3594 46.4667 28.8654 46.1288 28.6344 45.6207L24.0001 35.4251L19.3655 45.6207C19.1346 46.1288 18.6406 46.4667 18.0834 46.4977C17.5261 46.5287 16.9977 46.2478 16.7118 45.7685L12.6507 38.9606L4.50725 39C3.97449 39.0026 3.48034 38.7224 3.20905 38.2638C2.93775 37.8053 2.93002 37.2373 3.18875 36.7716L11.9255 21.0445C11.0134 19.226 10.5 17.173 10.5 15C10.5 7.54416 16.5442 1.5 24 1.5C31.4558 1.5 37.5 7.54416 37.5 15ZM27.3368 28.0845C30.0513 27.3943 32.4374 25.8817 34.2142 23.8275L40.9479 35.9876L35.3645 35.9606L35.3641 35.9606C34.8424 35.9581 34.3291 36.0916 33.8747 36.348C33.4203 36.6045 33.0406 36.9751 32.7732 37.4231L32.773 37.4234L30.1798 41.7706L25.6478 31.8002L27.3368 28.0845ZM23.8529 28.4992L22.6448 31.1569C22.6379 31.1714 22.6313 31.186 22.6249 31.2006L17.8202 41.7707L15.2268 37.4231C14.9594 36.9751 14.5797 36.6045 14.1253 36.348C13.6709 36.0916 13.1576 35.9581 12.6359 35.9606L12.6355 35.9606L7.05608 35.9876L13.8013 23.8455C16.2467 26.6625 19.8398 28.4564 23.8529 28.4992ZM19.5 15C19.5 12.5147 21.5147 10.5 24 10.5C26.4853 10.5 28.5 12.5147 28.5 15C28.5 17.4853 26.4853 19.5 24 19.5C21.5147 19.5 19.5 17.4853 19.5 15ZM24 7.5C19.8579 7.5 16.5 10.8579 16.5 15C16.5 19.1421 19.8579 22.5 24 22.5C28.1421 22.5 31.5 19.1421 31.5 15C31.5 10.8579 28.1421 7.5 24 7.5Z" fill="#888888"/>
</svg>
