<svg width="48" height="48" viewBox="0 0 48 48" fill="none" xmlns="http://www.w3.org/2000/svg">
<path fill-rule="evenodd" clip-rule="evenodd" d="M24 3C12.4025 3 3 12.4025 3 24C3 35.5975 12.4025 45 24 45C35.5975 45 45 35.5975 45 24C45 12.4025 35.5975 3 24 3ZM6 24C6 22.3666 6.2176 20.784 6.62538 19.2796C6.96048 20.0016 7.36911 20.6757 7.7796 21.3528C8.2123 22.0665 8.64708 22.7837 9 23.5641C9.46219 24.592 10.3342 24.9291 11.2085 25.2671C11.9959 25.5715 12.7852 25.8766 13.2788 26.6878C13.7707 27.4961 13.7212 28.4188 13.6716 29.3449C13.6279 30.1589 13.5842 30.9756 13.9078 31.7194C14.2185 32.4329 14.7901 32.8017 15.3744 33.1787C15.7352 33.4114 16.1008 33.6473 16.4128 33.9694C17.1263 34.6973 17.2174 35.6543 17.3082 36.6092L17.3082 36.6093L17.3082 36.6093L17.3082 36.6094C17.3237 36.7724 17.3392 36.9352 17.3578 37.0969C17.5016 38.4014 17.735 39.6944 18.0563 40.9669L18.0643 40.9982C11.0398 38.5453 6 31.8608 6 24ZM8.6413 16.4375C8.50119 16.049 8.36433 15.6695 8.19812 15.3735C9.4191 13.1418 11.0991 11.1971 13.1111 9.66621C13.0752 10.1034 13.1135 10.5443 13.2249 10.9699C13.3594 11.4836 13.5975 11.9643 13.9247 12.3825C14.116 12.6287 14.3463 12.8173 14.5678 12.9987C14.9897 13.3444 15.3795 13.6637 15.4059 14.3044C15.4453 15.2419 15.2991 15.7219 14.6859 16.3809C14.56 16.5145 14.4515 16.6746 14.3435 16.8342L14.3435 16.8343C14.224 17.0108 14.1049 17.1866 13.9631 17.325L13.9178 17.3691L13.9178 17.3691C13.7966 17.4873 13.7457 17.5369 13.6847 17.5626C13.6405 17.5813 13.5911 17.5873 13.5057 17.5978C13.4414 17.6057 13.3567 17.6161 13.2384 17.6363C12.4277 17.7732 11.7175 17.9722 10.9591 18.1848C10.809 18.2268 10.6569 18.2694 10.5019 18.3122C9.42479 18.6099 9.02109 17.4905 8.6413 16.4375ZM17.3072 8.59594C17.4621 8.27536 17.3076 7.8227 17.038 7.39596C17.3761 7.25405 17.7193 7.12216 18.0675 7.00066C18.2862 7.15319 18.529 7.2618 18.8184 7.28063C19.0299 7.29486 19.2374 7.26569 19.4405 7.23714C19.8396 7.18103 20.2218 7.1273 20.5847 7.41001C20.7441 7.53301 20.8918 7.66459 21.0376 7.79443C21.4473 8.1594 21.8416 8.51057 22.4363 8.61844C23.2163 8.76001 24.0422 8.30438 24.2353 7.50657C24.3501 7.04123 24.2432 6.55097 24.1375 6.06564L24.1233 6.00041C27.7801 6.02495 31.1781 7.1401 34.0082 9.03685C33.8145 8.94897 33.5769 8.95002 33.2822 9.08719C32.7131 9.35157 31.9069 10.0247 31.8403 10.6922C31.7644 11.4497 32.8819 11.5566 33.4125 11.5566C34.2084 11.5566 35.0166 11.2003 34.7597 10.2797C34.6432 9.86279 34.4823 9.42672 34.218 9.17959C34.8205 9.59581 35.3964 10.0478 35.9426 10.5326C35.932 10.5431 35.9214 10.5538 35.9109 10.5647C35.7529 10.7294 35.5873 10.884 35.4229 11.0375C35.0258 11.4084 34.6356 11.7728 34.3744 12.2569C34.1138 12.7378 33.8203 12.9675 33.2925 13.0922C33.23 13.1069 33.1656 13.1196 33.1005 13.1325C32.8632 13.1794 32.6176 13.2279 32.4263 13.3809C31.7475 13.9153 32.1337 15.1987 32.7769 15.585C33.5897 16.0716 34.7953 15.8428 35.4084 15.1481C35.5411 14.9976 35.6586 14.8163 35.7776 14.633C36.0882 14.154 36.4082 13.6606 37.0313 13.6613C37.4106 13.6605 37.7749 13.809 38.0456 14.0747C38.3157 14.354 38.3406 14.6204 38.37 14.9338C38.3793 15.0339 38.3891 15.1387 38.4075 15.2503C38.5422 16.0728 39.2702 15.6265 39.7095 15.2069C40.0283 15.7751 40.3172 16.3625 40.5739 16.9667C40.5384 17.0178 40.5034 17.0693 40.4686 17.1205C40.0283 17.7681 39.6193 18.3696 38.5387 17.6147C38.301 17.449 38.0945 17.2576 37.8909 17.0688L37.8909 17.0688C37.4978 16.7044 37.1152 16.3499 36.5391 16.2084C35.8787 16.0464 35.2043 16.1701 34.5462 16.2907C34.4429 16.3097 34.3399 16.3286 34.2375 16.3463C34.1153 16.3673 33.9899 16.3868 33.8628 16.4065C33.0974 16.5252 32.2698 16.6535 31.7119 17.2106C31.4103 17.5104 31.1768 17.8593 30.9417 18.2106C30.6864 18.5921 30.4291 18.9766 30.0806 19.3041C28.7859 20.5228 28.2394 21.8531 29.0775 23.5763C29.8838 25.2328 31.5703 26.1319 33.39 26.0138C33.775 25.9881 34.1633 25.9199 34.535 25.8546C35.8892 25.6167 37.0239 25.4173 36.9834 27.4556C36.9647 28.3744 37.1569 29.0119 37.4391 29.8659C37.645 30.4859 37.6778 31.0908 37.7117 31.7168C37.7208 31.8859 37.7301 32.0565 37.7428 32.2294C37.8097 33.1482 37.9384 34.1343 38.1966 35.067C34.9023 39.2867 29.7678 42 24 42C22.9795 42 21.9787 41.9151 21.0045 41.7519C21.0066 41.7017 21.0084 41.6523 21.0101 41.6039C21.0172 41.4073 21.0236 41.2283 21.0441 41.0934C21.2719 39.6028 22.0181 38.145 23.025 37.0294C23.4366 36.574 23.9112 36.1794 24.3858 35.7849L24.3858 35.7849C25.0582 35.2259 25.7304 34.6671 26.2228 33.9356C27.0413 32.7188 27.2878 31.0772 26.9485 29.6531C26.5984 28.1795 25.091 27.3931 23.6896 26.662C23.0904 26.3495 22.5107 26.047 22.0491 25.7053C21.8186 25.5346 21.5948 25.3398 21.3692 25.1434L21.3692 25.1434C20.7276 24.5848 20.0721 24.0142 19.2113 23.9531C19.0071 23.9385 18.8156 23.9463 18.6274 23.9539C18.3211 23.9664 18.0236 23.9785 17.6944 23.8931C17.5406 23.8535 17.3973 23.8003 17.2569 23.7481C16.952 23.6348 16.6606 23.5266 16.305 23.5734C15.8787 23.6295 15.5215 23.8611 15.1665 24.0912C14.7136 24.3848 14.2644 24.676 13.68 24.5972C12.6909 24.4641 11.6719 23.3072 11.4469 22.365C11.1581 21.1538 12.1163 20.7609 13.1428 20.6531C13.5713 20.6081 14.0522 20.5594 14.4638 20.7159C14.7645 20.8278 14.9772 21.041 15.19 21.2545C15.3608 21.4256 15.5316 21.5969 15.7481 21.7163C16.6603 22.2159 16.845 21.4172 16.7053 20.6072C16.6826 20.4755 16.6595 20.3522 16.6377 20.2361L16.6377 20.2359L16.6377 20.2359C16.4589 19.2825 16.37 18.8084 17.3344 18.0647C17.379 18.0305 17.4232 17.9968 17.4668 17.9636L17.4678 17.9628L17.4683 17.9624C18.1587 17.4368 18.7184 17.0107 18.6056 16.0388C18.5822 15.8388 18.5304 15.6749 18.4825 15.5234C18.385 15.2147 18.3037 14.9575 18.5119 14.5519C18.7427 14.1004 19.3684 13.6923 19.7895 13.4176L19.8141 13.4016C20.1361 13.1915 20.6762 13.0483 21.2388 12.8991C22.5743 12.545 24.0367 12.1573 23.0109 10.7616C22.5825 10.1794 21.7922 9.13875 21.0422 8.99625C20.4047 8.87577 20.0083 9.32094 19.6144 9.76323C19.429 9.97141 19.2441 10.1789 19.035 10.3266C18.36 10.8038 17.0456 11.3456 16.3697 10.6078C15.7646 9.94719 16.2317 9.58169 16.7106 9.20695C16.9514 9.01852 17.1952 8.82775 17.3072 8.59594ZM40.6833 30.7702C41.5323 28.6802 42 26.3947 42 24C42 22.762 41.875 21.5532 41.6369 20.3854C40.7592 20.8719 39.5844 21.065 38.8584 20.9588C38.1162 20.835 37.4148 20.534 36.8138 20.0813C36.6951 19.9937 36.5677 19.8661 36.4355 19.7338C36.2054 19.5033 35.9607 19.2583 35.7225 19.185C35.3475 19.0697 34.0388 19.3294 33.7538 19.5553C33.5848 19.6892 33.4419 19.9308 33.303 20.1658C33.2075 20.3272 33.1139 20.4855 33.015 20.6034C32.8904 20.7519 32.735 20.8912 32.579 21.0311C32.3853 21.2047 32.1907 21.3791 32.0531 21.5728C30.8037 23.3403 33.8897 22.8567 34.6916 22.731L34.7063 22.7288C36.2503 22.4859 37.8666 22.7728 38.9691 23.9681C39.8667 24.9424 39.8913 25.8819 39.9195 26.9592C39.9271 27.2524 39.9351 27.5558 39.9609 27.8728C39.996 28.2981 40.1483 28.7116 40.3014 29.1273C40.4349 29.4897 40.5689 29.8537 40.6266 30.2288C40.6541 30.4086 40.6714 30.5893 40.6833 30.7702ZM23.8181 32.1206C23.4542 32.7703 22.8013 33.281 22.1676 33.7768C21.822 34.0472 21.4821 34.3131 21.1978 34.5947C21.1431 34.649 21.0728 34.7368 20.9939 34.8354C20.7582 35.13 20.4457 35.5206 20.2406 35.3991C20.1066 35.3196 20.0331 34.8392 19.977 34.4722C19.951 34.3025 19.9288 34.1571 19.9059 34.0866C19.5335 32.963 18.8226 31.9822 17.8706 31.2788C17.7686 31.2015 17.6142 31.1163 17.4491 31.0251C17.1391 30.8539 16.7914 30.6619 16.6819 30.4631C16.546 30.2233 16.5972 29.747 16.6382 29.366C16.6538 29.2213 16.6679 29.0903 16.6697 28.9913C16.6737 28.7857 16.6395 28.5269 16.6042 28.2593C16.5493 27.8435 16.4916 27.4066 16.5703 27.1163C16.629 26.9009 16.6205 26.8206 16.6179 26.7962C16.6173 26.7905 16.6171 26.7878 16.618 26.7872C16.6189 26.7867 16.6207 26.7877 16.6241 26.7896C16.6426 26.7999 16.7085 26.8366 16.9238 26.7891C17.1834 26.7309 18.2559 26.9194 18.5794 26.9869C18.9925 27.0728 19.2565 27.2963 19.5546 27.5488C19.6272 27.6103 19.7019 27.6735 19.7813 27.7369C20.8463 28.5909 22.0191 29.2519 23.2125 29.9063C24.1369 30.4181 24.4088 31.0659 23.8181 32.1206Z" fill="#888888"/>
</svg>
