<svg width="48" height="48" viewBox="0 0 48 48" fill="none" xmlns="http://www.w3.org/2000/svg">
<path fill-rule="evenodd" clip-rule="evenodd" d="M12 6C10.5081 6 9.13805 6.40589 8.05319 7.30715C6.97252 8.20494 6.31598 9.47703 6.0296 10.9532L3.0387 25.16C3.01338 25.2693 3 25.3831 3 25.5V36L3.00001 36.0044C3.00462 37.5931 3.63778 39.1154 4.76118 40.2388C5.88459 41.3622 7.40692 41.9954 8.99564 42L9 42H39L39.0044 42C40.5931 41.9954 42.1154 41.3622 43.2388 40.2388C44.3622 39.1154 44.9954 37.5931 45 36.0044L45 36V25.5C45 25.3831 44.9866 25.2693 44.9613 25.1601L41.9714 10.958C41.6826 9.41828 40.9929 8.14002 39.8923 7.25621C38.7945 6.37462 37.4307 6 36 6H12ZM30 24H41.6513L39.0322 11.559C39.0297 11.5471 39.0273 11.5351 39.0251 11.5231C38.843 10.54 38.4557 9.95012 38.0139 9.59535C37.5649 9.23476 36.9131 9 36 9H12C11.0544 9 10.4088 9.25036 9.97025 9.61472C9.53078 9.97982 9.15677 10.5777 8.97301 11.5333L8.96782 11.559L6.34867 24H18C18.8284 24 19.5 24.6716 19.5 25.5C19.5 26.6935 19.9741 27.8381 20.818 28.682C21.6619 29.5259 22.8065 30 24 30C25.1935 30 26.3381 29.5259 27.182 28.682C28.0259 27.8381 28.5 26.6935 28.5 25.5C28.5 24.6716 29.1716 24 30 24ZM31.3485 27C31.0565 28.4302 30.3509 29.7557 29.3033 30.8033C27.8968 32.2098 25.9891 33 24 33C22.0109 33 20.1032 32.2098 18.6967 30.8033C17.6491 29.7557 16.9435 28.4302 16.6515 27H6V35.9976C6.00283 36.793 6.32004 37.555 6.8825 38.1175C7.44501 38.68 8.20712 38.9972 9.00257 39H38.9974C39.7929 38.9972 40.555 38.68 41.1175 38.1175C41.68 37.555 41.9972 36.7929 42 35.9974V27H31.3485ZM12 13.5C12 12.6716 12.6716 12 13.5 12H34.5C35.3284 12 36 12.6716 36 13.5C36 14.3284 35.3284 15 34.5 15H13.5C12.6716 15 12 14.3284 12 13.5ZM12 18C11.1716 18 10.5 18.6716 10.5 19.5C10.5 20.3284 11.1716 21 12 21H36C36.8284 21 37.5 20.3284 37.5 19.5C37.5 18.6716 36.8284 18 36 18H12Z" fill="#888888"/>
</svg>
