<svg width="232" height="112" viewBox="0 0 232 112" fill="none" xmlns="http://www.w3.org/2000/svg">
<g filter="url(#filter0_d_350_48)">
<path d="M130 50C130 27.9086 147.909 10 170 10C192.091 10 210 27.9086 210 50C210 72.0914 192.091 90 170 90C147.909 90 130 72.0914 130 50Z" fill="#F7F7F7"/>
<mask id="mask0_350_48" style="mask-type:luminance" maskUnits="userSpaceOnUse" x="130" y="10" width="80" height="80">
<path fill-rule="evenodd" clip-rule="evenodd" d="M130 50C130 27.9086 147.909 10 170 10C192.091 10 210 27.9086 210 50C210 72.0914 192.091 90 170 90C147.909 90 130 72.0914 130 50Z" fill="white"/>
</mask>
<g mask="url(#mask0_350_48)">
<path fill-rule="evenodd" clip-rule="evenodd" d="M169.999 28.6667C164.208 28.6668 163.481 28.6921 161.205 28.7956C158.934 28.8996 157.384 29.2592 156.028 29.7868C154.624 30.3317 153.434 31.0606 152.248 32.2468C151.062 33.4326 150.333 34.6228 149.786 36.0255C149.257 37.3824 148.897 38.9331 148.795 41.2033C148.693 43.4789 148.667 44.2065 148.667 50.0003C148.667 55.7941 148.692 56.519 148.796 58.7946C148.9 61.0658 149.26 62.616 149.787 63.9725C150.332 65.3756 151.061 66.5658 152.247 67.7516C153.432 68.9383 154.623 69.669 156.025 70.2138C157.382 70.7414 158.933 71.101 161.204 71.205C163.479 71.3085 164.206 71.3339 169.999 71.3339C175.794 71.3339 176.518 71.3085 178.794 71.205C181.065 71.101 182.617 70.7414 183.975 70.2138C185.377 69.669 186.566 68.9383 187.751 67.7516C188.938 66.5658 189.667 65.3756 190.213 63.9729C190.738 62.616 191.098 61.0653 191.204 58.7951C191.307 56.5195 191.333 55.7941 191.333 50.0003C191.333 44.2065 191.307 43.4793 191.204 41.2038C191.098 38.9326 190.738 37.3824 190.213 36.0259C189.667 34.6228 188.938 33.4326 187.751 32.2468C186.564 31.0601 185.378 30.3312 183.973 29.7868C182.613 29.2592 181.062 28.8996 178.791 28.7956C176.516 28.6921 175.791 28.6668 169.999 28.6667ZM168.088 32.5112C168.46 32.5107 168.86 32.5108 169.291 32.511L170.002 32.5112C175.698 32.5112 176.373 32.5317 178.623 32.6339C180.703 32.729 181.831 33.0766 182.583 33.3686C183.579 33.7552 184.289 34.2175 185.035 34.9641C185.782 35.7108 186.244 36.4219 186.632 37.4175C186.924 38.1686 187.272 39.2975 187.366 41.3776C187.468 43.6265 187.491 44.302 187.491 49.9954C187.491 55.6888 187.468 56.3644 187.366 58.6133C187.271 60.6933 186.924 61.8222 186.632 62.5733C186.245 63.5689 185.782 64.2778 185.035 65.024C184.288 65.7707 183.579 66.2329 182.583 66.6196C181.832 66.9129 180.703 67.2596 178.623 67.3547C176.374 67.4569 175.698 67.4792 170.002 67.4792C164.306 67.4792 163.63 67.4569 161.381 67.3547C159.301 67.2587 158.173 66.9112 157.42 66.6192C156.425 66.2325 155.713 65.7703 154.967 65.0236C154.22 64.2769 153.758 63.5676 153.37 62.5716C153.078 61.8204 152.73 60.6915 152.636 58.6115C152.533 56.3626 152.513 55.687 152.513 49.9901C152.513 44.2931 152.533 43.6211 152.636 41.3722C152.731 39.2922 153.078 38.1633 153.37 37.4113C153.757 36.4157 154.22 35.7046 154.967 34.9579C155.713 34.2113 156.425 33.749 157.42 33.3615C158.172 33.0681 159.301 32.7215 161.381 32.6259C163.35 32.537 164.112 32.5103 168.088 32.5059V32.5112ZM178.83 38.6127C178.83 37.1989 179.976 36.0536 181.39 36.0536V36.0527C182.803 36.0527 183.95 37.1993 183.95 38.6127C183.95 40.026 182.803 41.1727 181.39 41.1727C179.976 41.1727 178.83 40.026 178.83 38.6127ZM170.002 39.0446C163.951 39.0449 159.046 43.9502 159.046 50.0003C159.046 56.0506 163.952 60.9538 170.002 60.9538C176.052 60.9538 180.956 56.0506 180.956 50.0003C180.956 43.95 176.052 39.0446 170.002 39.0446ZM177.113 50.0003C177.113 46.0727 173.929 42.8891 170.002 42.8891C166.074 42.8891 162.891 46.0727 162.891 50.0003C162.891 53.9275 166.074 57.1115 170.002 57.1115C173.929 57.1115 177.113 53.9275 177.113 50.0003Z" fill="black"/>
</g>
</g>
<g filter="url(#filter1_d_350_48)">
<path d="M90 50C90 27.9086 107.909 10 130 10C152.091 10 170 27.9086 170 50C170 72.0914 152.091 90 130 90C107.909 90 90 72.0914 90 50Z" fill="#55ACEE"/>
<path d="M128.802 42.5125L128.886 43.8966L127.487 43.7271C122.395 43.0774 117.946 40.8742 114.169 37.1739L112.322 35.3378L111.847 36.6937C110.839 39.7161 111.483 42.908 113.581 45.0547C114.701 46.2411 114.449 46.4106 112.518 45.7044C111.847 45.4784 111.259 45.3089 111.203 45.3937C111.007 45.5914 111.679 48.1618 112.21 49.1787C112.938 50.5911 114.421 51.9752 116.044 52.7943L117.415 53.444L115.792 53.4722C114.225 53.4722 114.169 53.5005 114.337 54.0937C114.896 55.9297 117.107 57.8787 119.569 58.7261L121.304 59.3193L119.793 60.2232C117.554 61.5226 114.924 62.257 112.294 62.3135C111.035 62.3417 110 62.4547 110 62.5394C110 62.8219 113.414 64.4037 115.4 65.0252C121.36 66.8612 128.438 66.0703 133.754 62.9349C137.532 60.7034 141.309 56.2687 143.071 51.9752C144.023 49.6872 144.974 45.5067 144.974 43.5011C144.974 42.2018 145.058 42.0323 146.625 40.4787C147.548 39.5748 148.415 38.5862 148.583 38.3037C148.863 37.767 148.835 37.767 147.408 38.2472C145.03 39.0946 144.694 38.9817 145.869 37.7106C146.737 36.8067 147.772 35.1683 147.772 34.6882C147.772 34.6034 147.352 34.7446 146.877 34.9989C146.373 35.2813 145.254 35.705 144.414 35.9593L142.904 36.4395L141.533 35.5073C140.777 34.9989 139.714 34.4339 139.154 34.2645C137.727 33.869 135.545 33.9255 134.258 34.3774C130.761 35.6485 128.55 38.9252 128.802 42.5125Z" fill="white"/>
</g>
<g filter="url(#filter2_d_350_48)">
<path d="M130 50C130 27.9063 112.094 10 90 10C67.9063 10 50 27.9063 50 50C50 69.9688 64.625 86.5157 83.75 89.5157V61.5625H73.5937V50H83.75V41.1875C83.75 31.164 89.7188 25.625 98.8593 25.625C103.234 25.625 107.812 26.4062 107.812 26.4062V36.25H102.766C97.7968 36.25 96.25 39.336 96.25 42.5V50H107.344L105.57 61.5625H96.25V89.5157C115.375 86.5157 130 69.9688 130 50Z" fill="#1877F2"/>
<path d="M105.57 61.5625L107.344 50H96.25V42.5C96.25 39.336 97.7968 36.25 102.766 36.25H107.812V26.4062C107.812 26.4062 103.234 25.625 98.8593 25.625C89.7188 25.625 83.75 31.164 83.75 41.1875V50H73.5936V61.5625H83.75V89.5157C85.789 89.836 87.875 90 90 90C92.125 90 94.211 89.836 96.25 89.5157V61.5625H105.57Z" fill="white"/>
</g>
<g filter="url(#filter3_d_350_48)">
<path d="M10 50C10 27.9086 27.9086 10 50 10C72.0914 10 90 27.9086 90 50C90 72.0914 72.0914 90 50 90C27.9086 90 10 72.0914 10 50Z" fill="#0077B5"/>
<path fill-rule="evenodd" clip-rule="evenodd" d="M38.8646 34.7045C38.8646 37.3197 36.8961 39.4122 33.7353 39.4122H33.6773C30.6341 39.4122 28.6666 37.3197 28.6666 34.7045C28.6666 32.034 30.694 30 33.795 30C36.8961 30 38.8057 32.034 38.8646 34.7045ZM38.2675 43.1297V70.3659H29.2026V43.1297H38.2675ZM70.9586 70.366L70.959 54.7495C70.959 46.3838 66.487 42.4902 60.5219 42.4902C55.709 42.4902 53.5542 45.1338 52.3511 46.9883V43.1305H43.2852C43.4046 45.6862 43.2852 70.3667 43.2852 70.3667H52.3511V55.1557C52.3511 54.3417 52.41 53.5297 52.6496 52.9469C53.3048 51.3207 54.7965 49.6371 57.3008 49.6371C60.5823 49.6371 61.8941 52.1346 61.8941 55.7946V70.366H70.9586Z" fill="white"/>
</g>
<defs>
<filter id="filter0_d_350_48" x="120" y="0" width="112" height="112" filterUnits="userSpaceOnUse" color-interpolation-filters="sRGB">
<feFlood flood-opacity="0" result="BackgroundImageFix"/>
<feColorMatrix in="SourceAlpha" type="matrix" values="0 0 0 0 0 0 0 0 0 0 0 0 0 0 0 0 0 0 127 0" result="hardAlpha"/>
<feOffset dx="6" dy="6"/>
<feGaussianBlur stdDeviation="8"/>
<feColorMatrix type="matrix" values="0 0 0 0 0 0 0 0 0 0 0 0 0 0 0 0 0 0 0.11 0"/>
<feBlend mode="normal" in2="BackgroundImageFix" result="effect1_dropShadow_350_48"/>
<feBlend mode="normal" in="SourceGraphic" in2="effect1_dropShadow_350_48" result="shape"/>
</filter>
<filter id="filter1_d_350_48" x="80" y="0" width="112" height="112" filterUnits="userSpaceOnUse" color-interpolation-filters="sRGB">
<feFlood flood-opacity="0" result="BackgroundImageFix"/>
<feColorMatrix in="SourceAlpha" type="matrix" values="0 0 0 0 0 0 0 0 0 0 0 0 0 0 0 0 0 0 127 0" result="hardAlpha"/>
<feOffset dx="6" dy="6"/>
<feGaussianBlur stdDeviation="8"/>
<feColorMatrix type="matrix" values="0 0 0 0 0 0 0 0 0 0 0 0 0 0 0 0 0 0 0.11 0"/>
<feBlend mode="normal" in2="BackgroundImageFix" result="effect1_dropShadow_350_48"/>
<feBlend mode="normal" in="SourceGraphic" in2="effect1_dropShadow_350_48" result="shape"/>
</filter>
<filter id="filter2_d_350_48" x="40" y="0" width="112" height="112" filterUnits="userSpaceOnUse" color-interpolation-filters="sRGB">
<feFlood flood-opacity="0" result="BackgroundImageFix"/>
<feColorMatrix in="SourceAlpha" type="matrix" values="0 0 0 0 0 0 0 0 0 0 0 0 0 0 0 0 0 0 127 0" result="hardAlpha"/>
<feOffset dx="6" dy="6"/>
<feGaussianBlur stdDeviation="8"/>
<feColorMatrix type="matrix" values="0 0 0 0 0 0 0 0 0 0 0 0 0 0 0 0 0 0 0.11 0"/>
<feBlend mode="normal" in2="BackgroundImageFix" result="effect1_dropShadow_350_48"/>
<feBlend mode="normal" in="SourceGraphic" in2="effect1_dropShadow_350_48" result="shape"/>
</filter>
<filter id="filter3_d_350_48" x="0" y="0" width="112" height="112" filterUnits="userSpaceOnUse" color-interpolation-filters="sRGB">
<feFlood flood-opacity="0" result="BackgroundImageFix"/>
<feColorMatrix in="SourceAlpha" type="matrix" values="0 0 0 0 0 0 0 0 0 0 0 0 0 0 0 0 0 0 127 0" result="hardAlpha"/>
<feOffset dx="6" dy="6"/>
<feGaussianBlur stdDeviation="8"/>
<feColorMatrix type="matrix" values="0 0 0 0 0 0 0 0 0 0 0 0 0 0 0 0 0 0 0.11 0"/>
<feBlend mode="normal" in2="BackgroundImageFix" result="effect1_dropShadow_350_48"/>
<feBlend mode="normal" in="SourceGraphic" in2="effect1_dropShadow_350_48" result="shape"/>
</filter>
</defs>
</svg>
