<svg width="228" height="108" viewBox="0 0 228 108" fill="none" xmlns="http://www.w3.org/2000/svg">
<g filter="url(#filter0_d_350_175)">
<path d="M170 90C192.091 90 210 72.0914 210 50C210 27.9086 192.091 10 170 10C147.909 10 130 27.9086 130 50C130 72.0914 147.909 90 170 90Z" fill="white"/>
<path d="M154.762 65.4025V73.9405L162.746 69.4018C164.971 70.0432 167.337 70.3894 169.788 70.3894C182.926 70.3894 193.575 60.4517 193.575 48.1947C193.575 35.9368 182.926 26 169.788 26C156.65 26 146 35.9368 146 48.1947C146 55.1356 149.415 61.3331 154.762 65.4025Z" fill="url(#paint0_linear_350_175)"/>
<path d="M167.247 42.1157L154.419 55.6985L166.094 49.2928L172.194 55.6985L184.95 42.1157L173.405 48.4092L167.247 42.1157Z" fill="white"/>
</g>
<g filter="url(#filter1_d_350_175)">
<path d="M90 50C90 27.9086 107.909 10 130 10C152.091 10 170 27.9086 170 50C170 72.0914 152.091 90 130 90C107.909 90 90 72.0914 90 50Z" fill="white"/>
<path d="M117.559 55.6614C117.559 58.1426 115.532 60.1694 113.051 60.1694C110.57 60.1694 108.543 58.1426 108.543 55.6614C108.543 53.1802 110.57 51.1533 113.051 51.1533H117.559V55.6614Z" fill="#E01E5A"/>
<path d="M119.831 55.6614C119.831 53.1802 121.858 51.1533 124.339 51.1533C126.82 51.1533 128.847 53.1802 128.847 55.6614V66.949C128.847 69.4302 126.82 71.4571 124.339 71.4571C121.858 71.4571 119.831 69.4302 119.831 66.949V55.6614Z" fill="#E01E5A"/>
<path d="M124.339 37.5592C121.858 37.5592 119.831 35.5323 119.831 33.0512C119.831 30.57 121.858 28.5431 124.339 28.5431C126.82 28.5431 128.847 30.57 128.847 33.0512V37.5592H124.339Z" fill="#36C5F0"/>
<path d="M124.339 39.8307C126.82 39.8307 128.847 41.8576 128.847 44.3388C128.847 46.8199 126.82 48.8468 124.339 48.8468H113.051C110.57 48.8468 108.543 46.8199 108.543 44.3388C108.543 41.8576 110.57 39.8307 113.051 39.8307H124.339Z" fill="#36C5F0"/>
<path d="M142.441 44.3388C142.441 41.8576 144.468 39.8307 146.949 39.8307C149.43 39.8307 151.457 41.8576 151.457 44.3388C151.457 46.8199 149.43 48.8468 146.949 48.8468H142.441V44.3388Z" fill="#2EB67D"/>
<path d="M140.169 44.3388C140.169 46.82 138.142 48.8469 135.661 48.8469C133.18 48.8469 131.153 46.82 131.153 44.3388V33.0512C131.153 30.57 133.18 28.5431 135.661 28.5431C138.142 28.5431 140.169 30.57 140.169 33.0512V44.3388Z" fill="#2EB67D"/>
<path d="M135.661 62.4409C138.142 62.4409 140.169 64.4678 140.169 66.949C140.169 69.4302 138.142 71.457 135.661 71.457C133.18 71.457 131.153 69.4302 131.153 66.949V62.4409H135.661Z" fill="#ECB22E"/>
<path d="M135.661 60.1694C133.18 60.1694 131.153 58.1426 131.153 55.6614C131.153 53.1802 133.18 51.1533 135.661 51.1533H146.949C149.43 51.1533 151.457 53.1802 151.457 55.6614C151.457 58.1426 149.43 60.1694 146.949 60.1694H135.661Z" fill="#ECB22E"/>
</g>
<g filter="url(#filter2_d_350_175)">
<path d="M90 90C112.091 90 130 72.0914 130 50C130 27.9086 112.091 10 90 10C67.9086 10 50 27.9086 50 50C50 72.0914 67.9086 90 90 90Z" fill="#25D366"/>
<path fill-rule="evenodd" clip-rule="evenodd" d="M91.3185 72.2543H91.3086C87.3278 72.2529 83.4163 71.2541 79.9422 69.3592L67.3333 72.6667L70.7077 60.3415C68.6262 56.7343 67.531 52.6426 67.5327 48.4505C67.538 35.3362 78.208 24.6667 91.3182 24.6667C97.6811 24.6695 103.653 27.1465 108.144 31.6424C112.634 36.1381 115.106 42.114 115.104 48.4693C115.098 61.5805 104.432 72.2489 91.3185 72.2543ZM80.5264 65.0532L81.2483 65.4816C84.2836 67.2828 87.763 68.2359 91.3104 68.2373H91.3184C102.215 68.2373 111.083 59.3686 111.088 48.4679C111.09 43.1854 109.035 38.2185 105.303 34.4817C101.57 30.7449 96.6066 28.6859 91.3262 28.6841C80.4215 28.6841 71.553 37.5519 71.5486 48.4518C71.5471 52.1873 72.5923 55.8253 74.5712 58.9728L75.0413 59.7208L73.0441 67.016L80.5264 65.0532ZM102.487 53.5902C102.902 53.7905 103.182 53.9258 103.301 54.1253C103.45 54.3731 103.45 55.5631 102.955 56.9515C102.459 58.3397 100.085 59.6068 98.9432 59.7773C97.9193 59.9304 96.6236 59.9943 95.1999 59.5418C94.3367 59.268 93.2298 58.9023 91.8119 58.2899C86.2403 55.8841 82.475 50.4841 81.7634 49.4635C81.7136 49.392 81.6787 49.342 81.6593 49.316L81.6545 49.3096C81.34 48.89 79.2325 46.0782 79.2325 43.1681C79.2325 40.4305 80.5773 38.9956 81.1962 38.3351C81.2386 38.2899 81.2777 38.2483 81.3126 38.2101C81.8573 37.6151 82.5012 37.4664 82.8974 37.4664C83.2936 37.4664 83.6902 37.47 84.0365 37.4874C84.0792 37.4896 84.1236 37.4893 84.1696 37.489C84.5159 37.487 84.9477 37.4845 85.3736 38.5076C85.5375 38.9014 85.7773 39.4851 86.0301 40.1007C86.5415 41.3457 87.1066 42.7214 87.206 42.9205C87.3546 43.218 87.4536 43.5649 87.2556 43.9617C87.2258 44.0212 87.1983 44.0774 87.172 44.131C87.0232 44.4348 86.9138 44.6582 86.6613 44.9531C86.562 45.069 86.4593 45.194 86.3567 45.319C86.1522 45.568 85.9478 45.817 85.7698 45.9943C85.4722 46.2907 85.1625 46.6122 85.5092 47.2072C85.8559 47.8022 87.0486 49.7483 88.8154 51.3243C90.7146 53.0183 92.3653 53.7343 93.202 54.0972C93.3653 54.1681 93.4977 54.2255 93.5948 54.2741C94.1889 54.5717 94.5356 54.5219 94.8823 54.1253C95.229 53.7287 96.368 52.3899 96.7641 51.795C97.1602 51.2002 97.5566 51.2993 98.1012 51.4975C98.6461 51.6961 101.568 53.1337 102.162 53.4311C102.278 53.4892 102.387 53.5416 102.487 53.5902Z" fill="#FDFDFD"/>
</g>
<g filter="url(#filter3_d_350_175)">
<path d="M50 90C72.0913 90 90 72.0913 90 50C90 27.9087 72.0913 10 50 10C27.9087 10 10 27.9087 10 50C10 72.0913 27.9087 90 50 90Z" fill="url(#paint1_linear_350_175)"/>
<path d="M24.897 51.9567C29.573 49.381 34.7927 47.2314 39.6697 45.0707C48.06 41.5317 56.4837 38.054 64.9923 34.8164C66.6478 34.2647 69.6223 33.7252 69.914 36.1785C69.7543 39.6512 69.0973 43.1035 68.6467 46.5559C67.5028 54.1479 66.1808 61.7139 64.8917 69.2809C64.4475 71.8014 61.29 73.1062 59.2697 71.4932C54.4143 68.2135 49.5217 64.9659 44.7283 61.6102C43.1582 60.0147 44.6142 57.7235 46.0165 56.5842C50.0155 52.6432 54.2565 49.2949 58.0465 45.1502C59.0688 42.6814 56.0482 44.762 55.0518 45.3995C49.5772 49.1722 44.2365 53.1752 38.4645 56.4909C35.5162 58.1139 32.0798 56.7269 29.1328 55.8212C26.4905 54.7272 22.6184 53.625 24.8968 51.9569L24.897 51.9567Z" fill="white"/>
</g>
<defs>
<filter id="filter0_d_350_175" x="120" y="0" width="108" height="108" filterUnits="userSpaceOnUse" color-interpolation-filters="sRGB">
<feFlood flood-opacity="0" result="BackgroundImageFix"/>
<feColorMatrix in="SourceAlpha" type="matrix" values="0 0 0 0 0 0 0 0 0 0 0 0 0 0 0 0 0 0 127 0" result="hardAlpha"/>
<feOffset dx="4" dy="4"/>
<feGaussianBlur stdDeviation="7"/>
<feColorMatrix type="matrix" values="0 0 0 0 0 0 0 0 0 0 0 0 0 0 0 0 0 0 0.09 0"/>
<feBlend mode="normal" in2="BackgroundImageFix" result="effect1_dropShadow_350_175"/>
<feBlend mode="normal" in="SourceGraphic" in2="effect1_dropShadow_350_175" result="shape"/>
</filter>
<filter id="filter1_d_350_175" x="80" y="0" width="108" height="108" filterUnits="userSpaceOnUse" color-interpolation-filters="sRGB">
<feFlood flood-opacity="0" result="BackgroundImageFix"/>
<feColorMatrix in="SourceAlpha" type="matrix" values="0 0 0 0 0 0 0 0 0 0 0 0 0 0 0 0 0 0 127 0" result="hardAlpha"/>
<feOffset dx="4" dy="4"/>
<feGaussianBlur stdDeviation="7"/>
<feColorMatrix type="matrix" values="0 0 0 0 0 0 0 0 0 0 0 0 0 0 0 0 0 0 0.09 0"/>
<feBlend mode="normal" in2="BackgroundImageFix" result="effect1_dropShadow_350_175"/>
<feBlend mode="normal" in="SourceGraphic" in2="effect1_dropShadow_350_175" result="shape"/>
</filter>
<filter id="filter2_d_350_175" x="40" y="0" width="108" height="108" filterUnits="userSpaceOnUse" color-interpolation-filters="sRGB">
<feFlood flood-opacity="0" result="BackgroundImageFix"/>
<feColorMatrix in="SourceAlpha" type="matrix" values="0 0 0 0 0 0 0 0 0 0 0 0 0 0 0 0 0 0 127 0" result="hardAlpha"/>
<feOffset dx="4" dy="4"/>
<feGaussianBlur stdDeviation="7"/>
<feColorMatrix type="matrix" values="0 0 0 0 0 0 0 0 0 0 0 0 0 0 0 0 0 0 0.09 0"/>
<feBlend mode="normal" in2="BackgroundImageFix" result="effect1_dropShadow_350_175"/>
<feBlend mode="normal" in="SourceGraphic" in2="effect1_dropShadow_350_175" result="shape"/>
</filter>
<filter id="filter3_d_350_175" x="0" y="0" width="108" height="108" filterUnits="userSpaceOnUse" color-interpolation-filters="sRGB">
<feFlood flood-opacity="0" result="BackgroundImageFix"/>
<feColorMatrix in="SourceAlpha" type="matrix" values="0 0 0 0 0 0 0 0 0 0 0 0 0 0 0 0 0 0 127 0" result="hardAlpha"/>
<feOffset dx="4" dy="4"/>
<feGaussianBlur stdDeviation="7"/>
<feColorMatrix type="matrix" values="0 0 0 0 0 0 0 0 0 0 0 0 0 0 0 0 0 0 0.09 0"/>
<feBlend mode="normal" in2="BackgroundImageFix" result="effect1_dropShadow_350_175"/>
<feBlend mode="normal" in="SourceGraphic" in2="effect1_dropShadow_350_175" result="shape"/>
</filter>
<linearGradient id="paint0_linear_350_175" x1="148.655" y1="29.2408" x2="148.655" y2="71.8311" gradientUnits="userSpaceOnUse">
<stop stop-color="#00C6FF"/>
<stop offset="1" stop-color="#0068FF"/>
</linearGradient>
<linearGradient id="paint1_linear_350_175" x1="40.0047" y1="13.336" x2="20.0047" y2="60" gradientUnits="userSpaceOnUse">
<stop stop-color="#37AEE2"/>
<stop offset="1" stop-color="#1E96C8"/>
</linearGradient>
</defs>
</svg>
