<svg width="232" height="112" viewBox="0 0 232 112" fill="none" xmlns="http://www.w3.org/2000/svg">
<g filter="url(#filter0_d_350_218)">
<path d="M170 90C192.091 90 210 72.0914 210 50C210 27.9086 192.091 10 170 10C147.909 10 130 27.9086 130 50C130 72.0914 147.909 90 170 90Z" fill="#2D8CFF"/>
<path fill-rule="evenodd" clip-rule="evenodd" d="M193.478 36.559L182.174 44.8068V55.2251L193.478 63.4729C194.278 64.084 195.217 64.2728 195.217 62.6047V37.4272C195.217 35.9398 194.464 35.7529 193.478 36.559ZM143.913 56.2612V37.4789C143.913 36.7106 144.542 36.087 145.317 36.087H172.709C176.974 36.087 180.435 39.5129 180.435 43.739V62.5213C180.435 63.2896 179.806 63.9131 179.031 63.9131H151.639C147.374 63.9131 143.913 60.4872 143.913 56.2612Z" fill="white"/>
</g>
<g filter="url(#filter1_d_350_218)">
<path d="M90 50C90 27.9086 107.909 10 130 10C152.091 10 170 27.9086 170 50C170 72.0914 152.091 90 130 90C107.909 90 90 72.0914 90 50Z" fill="white"/>
<path d="M130 39.3688C133.255 39.3688 135.45 40.7748 136.702 41.9496L141.594 37.1733C138.59 34.3807 134.68 32.6666 130 32.6666C123.221 32.6666 117.366 36.557 114.516 42.2192L120.12 46.5718C121.526 42.3926 125.416 39.3688 130 39.3688Z" fill="#EA4335"/>
<path d="M146.64 50.3851C146.64 48.9599 146.524 47.9199 146.274 46.8414H130V53.274H139.553C139.36 54.8725 138.32 57.28 136.009 58.8977L141.479 63.1348C144.753 60.1111 146.64 55.6622 146.64 50.3851Z" fill="#4285F4"/>
<path d="M120.139 53.4281C119.773 52.3496 119.561 51.1941 119.561 50C119.561 48.8059 119.773 47.6504 120.12 46.5718L114.516 42.2192C113.341 44.5689 112.667 47.2074 112.667 50C112.667 52.7926 113.341 55.4311 114.516 57.7807L120.139 53.4281Z" fill="#FBBC05"/>
<path d="M130 67.3333C134.68 67.3333 138.609 65.7926 141.479 63.1348L136.009 58.8977C134.545 59.9185 132.581 60.6311 130 60.6311C125.416 60.6311 121.526 57.6074 120.139 53.4281L114.535 57.7807C117.385 63.4429 123.221 67.3333 130 67.3333Z" fill="#34A853"/>
</g>
<g filter="url(#filter2_d_350_218)">
<path d="M50 50C50 27.9087 67.9087 10 90 10C112.091 10 130 27.9087 130 50C130 72.0913 112.091 90 90 90C67.9087 90 50 72.0913 50 50Z" fill="white"/>
<path d="M107.449 65.3834H72.5015C71.1463 65.3834 70.0052 64.2779 70.0052 62.887V37.6389C70.0052 36.2839 71.1107 35.1427 72.5015 35.1427H107.449C108.805 35.1427 109.946 36.2482 109.946 37.6389V62.887C109.946 64.2779 108.84 65.3834 107.449 65.3834Z" fill="#E3E3E3"/>
<path opacity="0.1" d="M74.9978 65.3834L89.9398 53.3656L90.0468 52.7237L74.6412 41.6331L74.6055 64.8486L74.9978 65.3834Z" fill="#231F20"/>
<path d="M72.5015 65.3834C71.1107 65.3834 70.0052 64.2779 70.0052 62.8871V37.6032C70.0052 36.2126 71.1107 35.9629 72.5015 35.9629C73.8923 35.9629 74.9978 36.2482 74.9978 37.6032V65.3834H72.5015Z" fill="#D54B3D"/>
<path fill-rule="evenodd" clip-rule="evenodd" d="M70.0052 37.6032C70.0052 36.2482 71.1107 35.9629 72.5015 35.9629C73.8923 35.9629 74.9978 36.2126 74.9978 37.6032V65.3834H72.5015C71.1107 65.3834 70.0052 64.2779 70.0052 62.8871V37.6032ZM74.6412 37.6032C74.6412 36.8544 74.2845 36.3195 72.5015 36.3195C70.7185 36.3195 70.3618 36.8187 70.3618 37.6032V62.887C70.3618 64.0639 71.3247 65.0267 72.5015 65.0267H74.6412V37.6032Z" fill="#D72B27"/>
<path d="M107.449 65.3834H104.953V37.5321C104.953 36.1412 106.059 35.9629 107.449 35.9629C108.84 35.9629 109.946 36.1412 109.946 37.5321V62.9227C109.946 64.2779 108.84 65.3834 107.449 65.3834Z" fill="#D54B3D"/>
<path fill-rule="evenodd" clip-rule="evenodd" d="M104.953 37.5321C104.953 36.1412 106.059 35.9629 107.449 35.9629C108.84 35.9629 109.946 36.1412 109.946 37.5321V62.9227C109.946 64.3136 108.84 65.4191 107.449 65.4191H104.953V37.5321ZM109.589 37.532C109.589 36.6404 109.054 36.3195 107.449 36.3195C105.845 36.3195 105.31 36.6047 105.31 37.532V65.0624H107.449C108.626 65.0624 109.589 64.0995 109.589 62.9227V37.532Z" fill="#D72B27"/>
<path d="M96.7512 65.3833L70.2142 38.6403L71.61 39.208L90.0825 52.5097L109.946 37.9443V62.9227C109.946 64.2778 108.84 65.3833 107.45 65.3833H96.7512Z" fill="url(#paint0_linear_350_218)"/>
<path d="M89.9398 53.3655L71.075 39.6717C69.9695 38.8515 69.6487 37.2824 70.4688 36.1769C71.289 35.0714 72.8938 34.8217 74.035 35.6419L89.9755 47.2319L106.023 35.4994C107.129 34.679 108.698 34.9287 109.518 36.0699C110.338 37.1754 110.088 38.7445 108.947 39.5647L89.9398 53.3655Z" fill="#D54B3D"/>
<path fill-rule="evenodd" clip-rule="evenodd" d="M105.987 35.4637C106.415 35.1427 106.95 35 107.449 35C108.234 35 108.983 35.3567 109.482 36.0698C110.267 37.211 110.017 38.7445 108.912 39.5647L89.9398 53.4012L71.075 39.6717C69.9695 38.8513 69.6487 37.2823 70.4332 36.1768C70.9323 35.4993 71.717 35.1427 72.5015 35.1427C73.0365 35.1427 73.5713 35.2853 73.9993 35.6062L89.9398 47.1962L105.987 35.4637ZM109.197 36.2482C108.769 35.6775 108.127 35.3567 107.449 35.3567C106.986 35.3567 106.558 35.4993 106.166 35.7488L90.1538 47.4815L89.9398 47.624L89.7258 47.4815L73.821 35.9272C73.4643 35.6418 73.0008 35.4993 72.5372 35.4993C71.824 35.4993 71.1463 35.8558 70.7542 36.3908C70.0765 37.318 70.3262 38.6732 71.289 39.3863L89.9398 52.9375L108.733 39.2437C109.66 38.5305 109.874 37.211 109.197 36.2482Z" fill="#D72B27"/>
</g>
<g filter="url(#filter3_d_350_218)">
<path d="M50 90C72.0914 90 90 72.0914 90 50C90 27.9086 72.0914 10 50 10C27.9086 10 10 27.9086 10 50C10 72.0914 27.9086 90 50 90Z" fill="url(#paint1_linear_350_218)"/>
<path fill-rule="evenodd" clip-rule="evenodd" d="M26 34.0071C26 29.5849 29.5686 26 34.0071 26H65.9929C70.4151 26 74 29.5686 74 34.0071V65.9929C74 70.4151 70.4314 74 65.9929 74H34.0071C29.5849 74 26 70.4314 26 65.9929V34.0071ZM53.12 35.1214V50.3586C53.12 51.9501 54.4091 53.24 55.9993 53.24H64.8807C66.4704 53.24 67.76 51.95 67.76 50.3586V35.1214C67.76 33.5299 66.4709 32.24 64.8807 32.24H55.9993C54.4096 32.24 53.12 33.5301 53.12 35.1214ZM32.24 62.362V35.118C32.24 33.5285 33.5296 32.24 35.1193 32.24H44.0007C45.5909 32.24 46.88 33.5286 46.88 35.118V62.362C46.88 63.9515 45.5904 65.24 44.0007 65.24H35.1193C33.5291 65.24 32.24 63.9514 32.24 62.362Z" fill="white"/>
</g>
<defs>
<filter id="filter0_d_350_218" x="120" y="0" width="112" height="112" filterUnits="userSpaceOnUse" color-interpolation-filters="sRGB">
<feFlood flood-opacity="0" result="BackgroundImageFix"/>
<feColorMatrix in="SourceAlpha" type="matrix" values="0 0 0 0 0 0 0 0 0 0 0 0 0 0 0 0 0 0 127 0" result="hardAlpha"/>
<feOffset dx="6" dy="6"/>
<feGaussianBlur stdDeviation="8"/>
<feColorMatrix type="matrix" values="0 0 0 0 0 0 0 0 0 0 0 0 0 0 0 0 0 0 0.1 0"/>
<feBlend mode="normal" in2="BackgroundImageFix" result="effect1_dropShadow_350_218"/>
<feBlend mode="normal" in="SourceGraphic" in2="effect1_dropShadow_350_218" result="shape"/>
</filter>
<filter id="filter1_d_350_218" x="80" y="0" width="112" height="112" filterUnits="userSpaceOnUse" color-interpolation-filters="sRGB">
<feFlood flood-opacity="0" result="BackgroundImageFix"/>
<feColorMatrix in="SourceAlpha" type="matrix" values="0 0 0 0 0 0 0 0 0 0 0 0 0 0 0 0 0 0 127 0" result="hardAlpha"/>
<feOffset dx="6" dy="6"/>
<feGaussianBlur stdDeviation="8"/>
<feColorMatrix type="matrix" values="0 0 0 0 0 0 0 0 0 0 0 0 0 0 0 0 0 0 0.1 0"/>
<feBlend mode="normal" in2="BackgroundImageFix" result="effect1_dropShadow_350_218"/>
<feBlend mode="normal" in="SourceGraphic" in2="effect1_dropShadow_350_218" result="shape"/>
</filter>
<filter id="filter2_d_350_218" x="40" y="0" width="112" height="112" filterUnits="userSpaceOnUse" color-interpolation-filters="sRGB">
<feFlood flood-opacity="0" result="BackgroundImageFix"/>
<feColorMatrix in="SourceAlpha" type="matrix" values="0 0 0 0 0 0 0 0 0 0 0 0 0 0 0 0 0 0 127 0" result="hardAlpha"/>
<feOffset dx="6" dy="6"/>
<feGaussianBlur stdDeviation="8"/>
<feColorMatrix type="matrix" values="0 0 0 0 0 0 0 0 0 0 0 0 0 0 0 0 0 0 0.1 0"/>
<feBlend mode="normal" in2="BackgroundImageFix" result="effect1_dropShadow_350_218"/>
<feBlend mode="normal" in="SourceGraphic" in2="effect1_dropShadow_350_218" result="shape"/>
</filter>
<filter id="filter3_d_350_218" x="0" y="0" width="112" height="112" filterUnits="userSpaceOnUse" color-interpolation-filters="sRGB">
<feFlood flood-opacity="0" result="BackgroundImageFix"/>
<feColorMatrix in="SourceAlpha" type="matrix" values="0 0 0 0 0 0 0 0 0 0 0 0 0 0 0 0 0 0 127 0" result="hardAlpha"/>
<feOffset dx="6" dy="6"/>
<feGaussianBlur stdDeviation="8"/>
<feColorMatrix type="matrix" values="0 0 0 0 0 0 0 0 0 0 0 0 0 0 0 0 0 0 0.1 0"/>
<feBlend mode="normal" in2="BackgroundImageFix" result="effect1_dropShadow_350_218"/>
<feBlend mode="normal" in="SourceGraphic" in2="effect1_dropShadow_350_218" result="shape"/>
</filter>
<linearGradient id="paint0_linear_350_218" x1="70.2157" y1="65.3866" x2="109.959" y2="65.3866" gradientUnits="userSpaceOnUse">
<stop stop-opacity="0.1"/>
<stop offset="1" stop-opacity="0.2"/>
</linearGradient>
<linearGradient id="paint1_linear_350_218" x1="10" y1="10" x2="10" y2="90" gradientUnits="userSpaceOnUse">
<stop stop-color="#0091E6"/>
<stop offset="1" stop-color="#0079BF"/>
</linearGradient>
</defs>
</svg>
