<svg width="48" height="48" viewBox="0 0 48 48" fill="none" xmlns="http://www.w3.org/2000/svg">
<path fill-rule="evenodd" clip-rule="evenodd" d="M6 12.0131C6 11.1774 6.67745 10.5 7.51312 10.5H40.4869C41.3225 10.5 42 11.1774 42 12.0131V34.4869C42 35.3225 41.3225 36 40.4869 36H7.51312C6.67745 36 6 35.3225 6 34.4869V12.0131ZM7.51312 7.5C5.0206 7.5 3 9.5206 3 12.0131V34.4869C3 35.6449 3.43613 36.701 4.1531 37.5H1.5C0.671573 37.5 0 38.1716 0 39C0 39.8284 0.671573 40.5 1.5 40.5H46.5C47.3284 40.5 48 39.8284 48 39C48 38.1716 47.3284 37.5 46.5 37.5H43.8469C44.5639 36.701 45 35.6449 45 34.4869V12.0131C45 9.52059 42.9794 7.5 40.4869 7.5H7.51312ZM10.3125 17.25C10.3125 16.4216 10.9841 15.75 11.8125 15.75H33.2812C34.1097 15.75 34.7812 16.4216 34.7812 17.25C34.7812 18.0784 34.1097 18.75 33.2812 18.75H11.8125C10.9841 18.75 10.3125 18.0784 10.3125 17.25ZM11.8125 21.75C10.9841 21.75 10.3125 22.4216 10.3125 23.25C10.3125 24.0784 10.9841 24.75 11.8125 24.75H24.375C25.2034 24.75 25.875 24.0784 25.875 23.25C25.875 22.4216 25.2034 21.75 24.375 21.75H11.8125Z" fill="#888888"/>
</svg>
